<?xml version="1.0" encoding="UTF-8" standalone="no"?>
<svg width="142px" height="129px" viewBox="0 0 142 129" version="1.1" xmlns="http://www.w3.org/2000/svg" xmlns:xlink="http://www.w3.org/1999/xlink">
    <!-- Generator: Sketch 47.1 (45422) - http://www.bohemiancoding.com/sketch -->
    <title>aep</title>
    <desc>Created with Sketch.</desc>
    <defs>
        <filter x="-2.6%" y="-2.0%" width="107.4%" height="106.5%" filterUnits="objectBoundingBox" id="filter-1">
            <feOffset dx="3" dy="3" in="SourceAlpha" result="shadowOffsetOuter1"></feOffset>
            <feColorMatrix values="0 0 0 0 0   0 0 0 0 0   0 0 0 0 0  0 0 0 0.2 0" type="matrix" in="shadowOffsetOuter1" result="shadowMatrixOuter1"></feColorMatrix>
            <feMerge>
                <feMergeNode in="shadowMatrixOuter1"></feMergeNode>
                <feMergeNode in="SourceGraphic"></feMergeNode>
            </feMerge>
        </filter>
        <path d="M68.6082746,119 C46.4119718,119 24.6487676,111.846975 7,98.7153025 L15.0123239,89 C30.3873239,100.316726 49.2271127,106.508897 68.5,106.508897 C87.7728873,106.508897 106.612676,100.316726 121.987676,89 L130,98.7153025 C112.567782,111.846975 90.8045775,119 68.6082746,119 L68.6082746,119 Z" id="path-2"></path>
        <path d="M63,27.7294686 L86.7633803,99.1014493 C86.7633803,99.1014493 93.5070423,102.541063 98.9661972,112 C97.5746479,101.14372 101,94.3719807 101,94.3719807 L77.2366197,23 L63,27.7294686 L63,27.7294686 Z" id="path-3"></path>
        <filter x="-8.6%" y="-3.7%" width="127.0%" height="111.5%" filterUnits="objectBoundingBox" id="filter-4">
            <feMorphology radius="1" operator="dilate" in="SourceAlpha" result="shadowSpreadOuter1"></feMorphology>
            <feOffset dx="4" dy="4" in="shadowSpreadOuter1" result="shadowOffsetOuter1"></feOffset>
            <feComposite in="shadowOffsetOuter1" in2="SourceAlpha" operator="out" result="shadowOffsetOuter1"></feComposite>
            <feColorMatrix values="0 0 0 0 0   0 0 0 0 0   0 0 0 0 0  0 0 0 0.2 0" type="matrix" in="shadowOffsetOuter1"></feColorMatrix>
        </filter>
        <circle id="path-5" cx="68.5" cy="19.5" r="19.5"></circle>
        <filter x="-6.4%" y="-6.4%" width="112.8%" height="120.5%" filterUnits="objectBoundingBox" id="filter-6">
            <feMorphology radius="1" operator="dilate" in="SourceAlpha" result="shadowSpreadOuter1"></feMorphology>
            <feOffset dx="0" dy="3" in="shadowSpreadOuter1" result="shadowOffsetOuter1"></feOffset>
            <feComposite in="shadowOffsetOuter1" in2="SourceAlpha" operator="out" result="shadowOffsetOuter1"></feComposite>
            <feColorMatrix values="0 0 0 0 0   0 0 0 0 0   0 0 0 0 0  0 0 0 0.2 0" type="matrix" in="shadowOffsetOuter1"></feColorMatrix>
        </filter>
        <path d="M23.7429708,37.6861669 C24.5040893,39.7415957 23.5255084,41.9052049 21.4596154,42.6624681 L18.6326039,43.7442727 C16.5667109,44.501536 14.3920866,43.5279118 13.6309682,41.4724831 L0.257029175,6.3138331 C-0.504089304,4.25840433 0.474491598,2.0947951 2.54038461,1.33753187 L5.36739611,0.25572726 C7.43328912,-0.50153597 9.60791335,0.472088183 10.3690318,2.52751695 L23.7429708,37.6861669 L23.7429708,37.6861669 Z" id="path-7"></path>
        <filter x="-10.4%" y="-5.7%" width="133.3%" height="115.9%" filterUnits="objectBoundingBox" id="filter-9">
            <feMorphology radius="1" operator="dilate" in="SourceAlpha" result="shadowSpreadOuter1"></feMorphology>
            <feOffset dx="3" dy="2" in="shadowSpreadOuter1" result="shadowOffsetOuter1"></feOffset>
            <feComposite in="shadowOffsetOuter1" in2="SourceAlpha" operator="out" result="shadowOffsetOuter1"></feComposite>
            <feColorMatrix values="0 0 0 0 0   0 0 0 0 0   0 0 0 0 0  0 0 0 0.2 0" type="matrix" in="shadowOffsetOuter1"></feColorMatrix>
        </filter>
        <filter x="-4.2%" y="-10.0%" width="110.0%" height="132.0%" filterUnits="objectBoundingBox" id="filter-10">
            <feOffset dx="1" dy="3" in="SourceAlpha" result="shadowOffsetOuter1"></feOffset>
            <feColorMatrix values="0 0 0 0 0   0 0 0 0 0   0 0 0 0 0  0 0 0 0.2 0" type="matrix" in="shadowOffsetOuter1" result="shadowMatrixOuter1"></feColorMatrix>
            <feMerge>
                <feMergeNode in="shadowMatrixOuter1"></feMergeNode>
                <feMergeNode in="SourceGraphic"></feMergeNode>
            </feMerge>
        </filter>
        <path d="M60,21.0869565 C60,23.2608696 58.2857143,25 56.1428571,25 L3.85714286,25 C1.71428571,25 0,23.2608696 0,21.0869565 L0,3.91304348 C0,1.73913043 1.71428571,0 3.85714286,0 L56.1428571,0 C58.2857143,0 60,1.73913043 60,3.91304348 L60,21.0869565 L60,21.0869565 Z" id="path-11"></path>
    </defs>
    <g id="mockups-2" stroke="none" stroke-width="1" fill="none" fill-rule="evenodd">
        <g id="home-mike-grey-c-copy-5" transform="translate(-422.000000, -1401.000000)">
            <g id="aep" filter="url(#filter-1)" transform="translate(424.000000, 1402.000000)">
                <path d="M37.8905639,76.0448845 L22.1944444,100 L11,93.5384615 L61.8055556,16 L67.5215457,19.2993232 L73.2824957,16 L124,93.5384615 L112.824957,100 L97.533512,76.6713997 C88.6941754,80.7579983 78.8820215,83 68.4362986,83 C57.431701,83 47.0830228,80.5188323 37.8905639,76.0448845 Z M43.1958048,67.9481278 C50.7509109,71.7727486 59.3785905,73.9416595 68.4362986,73.9416595 C76.9473516,73.9416595 85.0474146,72.0025067 92.2452921,68.6037011 L67.5010499,30.8539303 L43.1958048,67.9481278 Z" id="Combined-Shape" stroke="#000000" stroke-width="2" fill="#E0E0E0"></path>
                <path d="M121.521565,83 C106.749201,95.1803714 87.9872204,102.466844 67.5,102.466844 C47.0127796,102.466844 28.2507987,95.1803714 13.4784345,83 L0,99.6392573 C18.3306709,114.864721 41.8370607,124 67.5,124 C93.1629393,123.891247 116.561502,114.755968 135,99.6392573 L121.521565,83 Z" id="Shape" stroke="#000000" stroke-width="2" fill="#E0E0E0"></path>
                <g id="Shape">
                    <use fill="#FFFFFF" fill-rule="evenodd" xlink:href="#path-2"></use>
                    <path stroke="#C2C2C2" stroke-width="1" d="M129.280909,98.6292266 L121.902191,89.6821997 C106.48937,100.900889 87.6923473,107.008897 68.5,107.008897 C49.3076527,107.008897 30.5106299,100.900889 15.0978098,89.6821984 L7.72104742,98.626854 C25.1964859,111.486839 46.682121,118.5 68.6082746,118.5 C90.5612161,118.5 112.039216,111.471356 129.280909,98.6292266 Z"></path>
                </g>
                <g id="Shape">
                    <use fill="black" fill-opacity="1" filter="url(#filter-4)" xlink:href="#path-3"></use>
                    <use stroke="#000000" stroke-width="2" fill="#65BEF6" fill-rule="evenodd" xlink:href="#path-3"></use>
                </g>
                <g id="Oval">
                    <use fill="black" fill-opacity="1" filter="url(#filter-6)" xlink:href="#path-5"></use>
                    <use stroke="#000000" stroke-width="2" fill="#E0E0E0" fill-rule="evenodd" xlink:href="#path-5"></use>
                </g>
                <path d="M81.7846154,16.8461538 L54.2153846,16.8461538 C55.1846154,10.1692308 61,5 68,5 C75,5 80.7076923,10.1692308 81.7846154,16.8461538 Z M54.2153846,21.1538462 L81.7846154,21.1538462 C80.8153846,27.8307692 75,33 68,33 C61,33 55.2923077,27.8307692 54.2153846,21.1538462 Z" id="Combined-Shape" fill="#FFFFFF"></path>
                <g id="Group-4" transform="translate(16.000000, 37.000000)">
                    <mask id="mask-8" fill="white">
                        <use xlink:href="#path-7"></use>
                    </mask>
                    <g id="Mask">
                        <use fill="black" fill-opacity="1" filter="url(#filter-9)" xlink:href="#path-7"></use>
                        <use stroke="#000000" stroke-width="2" fill="#D5EFFF" fill-rule="evenodd" xlink:href="#path-7"></use>
                    </g>
                    <rect id="Rectangle-12" fill-opacity="0.0900000036" fill="#000000" mask="url(#mask-8)" transform="translate(15.570412, 32.754120) rotate(-20.000000) translate(-15.570412, -32.754120) " x="6.07041226" y="20.2541196" width="19" height="25"></rect>
                    <rect id="Rectangle-12-Copy" fill-opacity="0.0900000036" fill="#000000" mask="url(#mask-8)" transform="translate(17.173608, 37.158864) rotate(-20.000000) translate(-17.173608, -37.158864) " x="7.673608" y="29.3462944" width="19" height="15.6251385"></rect>
                    <rect id="Rectangle-12-Copy-2" fill-opacity="0.0900000036" fill="#000000" mask="url(#mask-8)" transform="translate(18.149337, 39.839658) rotate(-20.000000) translate(-18.149337, -39.839658) " x="8.64933749" y="34.8799314" width="19" height="9.91945415"></rect>
                    <rect id="Rectangle-12-Copy-3" fill-opacity="0.0900000036" fill="#000000" mask="url(#mask-8)" transform="translate(18.853836, 41.775251) rotate(-20.000000) translate(-18.853836, -41.775251) " x="9.35383568" y="38.8753391" width="19" height="5.79982434"></rect>
                </g>
                <g id="Group" filter="url(#filter-10)" transform="translate(63.000000, 33.000000)">
                    <mask id="mask-12" fill="white">
                        <use xlink:href="#path-11"></use>
                    </mask>
                    <use id="Mask" stroke="#000000" stroke-width="2" fill="#D5EFFF" xlink:href="#path-11"></use>
                    <path d="M41,1 L45,1 L45,24 L41,24 L41,1 Z M13,1 L17,1 L17,24 L13,24 L13,1 Z" id="Combined-Shape" fill="#FFFFFF" mask="url(#mask-12)"></path>
                    <rect id="Rectangle-11" fill-opacity="0.0900000036" fill="#000000" mask="url(#mask-12)" x="0" y="10" width="60" height="15"></rect>
                    <rect id="Rectangle-11-Copy" fill-opacity="0.0900000036" fill="#000000" mask="url(#mask-12)" x="0" y="18" width="60" height="8"></rect>
                    <rect id="Rectangle-11-Copy-2" fill-opacity="0.0900000036" fill="#000000" mask="url(#mask-12)" x="0" y="21" width="60" height="5"></rect>
                </g>
            </g>
        </g>
    </g>
</svg>