<?xml version="1.0" encoding="UTF-8" standalone="no"?>
<svg width="160px" height="84px" viewBox="0 0 160 84" version="1.1" xmlns="http://www.w3.org/2000/svg" xmlns:xlink="http://www.w3.org/1999/xlink">
    <!-- Generator: Sketch 47.1 (45422) - http://www.bohemiancoding.com/sketch -->
    <title>client-adobe</title>
    <desc>Created with Sketch.</desc>
    <defs></defs>
    <g id="mockups-2" stroke="none" stroke-width="1" fill="none" fill-rule="evenodd">
        <g id="client-adobe" fill-rule="nonzero">
            <g id="Adobe_Systems_Logo_002-Copy" transform="translate(5.000000, 24.000000)">
                <polygon id="Shape" fill="#FFFFFF" points="0.594067797 1.03813953 39.2152542 1.03813953 39.2152542 34.8036279 0.594067797 34.8036279"></polygon>
                <path d="M24.9389831,1.03813953 L39.2152542,34.8036279 L39.2152542,1.03813953 L24.9389831,1.03813953 Z M0.594067797,1.03813953 L0.594067797,34.8036279 L14.8813559,1.03813953 L0.594067797,1.03813953 Z M13.6677966,28.012186 L20.3245763,28.012186 L23.0449153,34.8036279 L29.0059322,34.8036279 L19.9110169,13.4815814 L13.6677966,28.012186 Z" id="Shape" fill="#000000"></path>
                <path d="M59.6033898,0.949395349 L51.8745763,34.8044651 L56.5525424,34.8044651 L58.5864407,25.4620465 L65.7050847,25.4620465 L67.6881356,34.8044651 L72.4169492,34.8044651 L65.1457627,0.949395349 L59.6033898,0.949395349 Z M59.1457627,21.6937674 L60.7728814,13.6071628 C61.2305085,11.4471628 61.7389831,8.33274419 62.0949153,5.87218605 L62.2983051,5.87218605 C62.6542373,8.28334884 63.1118644,11.2964651 63.5694915,13.6071628 L65.1457627,21.6937674 L59.1457627,21.6937674 Z M90.2720339,0.0452093023 L85.4923729,0.0452093023 L85.4923729,12.7532093 L85.390678,12.7532093 C84.5262712,10.8946047 82.95,9.9904186 80.9669492,9.9904186 C77.0525424,9.9904186 73.3398305,14.0575814 73.3398305,22.6984186 C73.3398305,30.2835349 76.1364407,35.2054884 80.7127119,35.2054884 C83.2025424,35.2054884 85.0847458,33.547814 85.8983051,31.8390698 L86.0516949,31.8390698 L86.3559322,34.8027907 L90.4737288,34.8027907 C90.3720339,33.0948837 90.270339,30.3831628 90.270339,28.5245581 L90.2720339,0.0452093023 L90.2720339,0.0452093023 Z M85.4923729,26.2155349 C85.4923729,26.7672558 85.440678,27.3708837 85.3398305,27.7710698 C84.5262712,30.6837209 83.1016949,31.2379535 82.0347458,31.2379535 C79.4923729,31.2379535 78.170339,27.7225116 78.170339,22.6992558 C78.170339,18.1783256 79.1864407,14.0592558 82.1864407,14.0592558 C83.9152542,14.0592558 85.1864407,15.968093 85.440678,18.1783256 C85.4923729,18.6814884 85.4923729,19.2340465 85.4923729,19.6861395 L85.4923729,26.2155349 Z M101.910169,9.9904186 C97.3855932,9.9904186 93.1652542,13.7578605 93.1652542,22.648186 C93.1652542,31.0378605 96.7245763,35.2063256 101.657627,35.2063256 L101.709322,35.2063256 C105.471186,35.2063256 110.302542,32.2426047 110.302542,22.5485581 C110.3,14.3112558 106.791525,9.9904186 101.910169,9.9904186 Z M101.809322,31.4882791 L101.757627,31.4882791 C98.6567797,31.4882791 97.9440678,26.6659535 97.9440678,22.5979535 C97.9440678,18.9309767 98.5550847,13.7067907 101.705932,13.7067907 C104.75678,13.7067907 105.417797,18.9309767 105.417797,22.5979535 C105.419492,26.316 104.757627,31.4882791 101.809322,31.4882791 Z M123.247458,9.9904186 C121.061864,9.9904186 119.333051,10.9448372 118.061864,13.1542326 L117.960169,13.1542326 L117.960169,0.0452093023 L113.180508,0.0452093023 L113.180508,28.5262326 C113.180508,30.3848372 113.078814,33.1484651 112.977119,34.8044651 L117.095763,34.8044651 L117.35,31.7411163 L117.552542,31.7411163 C118.621186,33.9011163 119.99322,35.208 122.433898,35.208 C126.501695,35.208 130.112712,30.9365581 130.112712,22.1977674 C130.111017,14.7122791 127.466949,9.9904186 123.247458,9.9904186 Z M121.366102,31.2379535 C120.399153,31.2379535 118.925424,30.6343256 118.162712,27.6714419 C118.010169,27.2704186 117.960169,26.716186 117.960169,26.1636279 L117.960169,19.3336744 C117.960169,18.8296744 118.011864,18.1774884 118.113559,17.676 C118.469492,15.9178605 119.740678,14.0592558 121.315254,14.0592558 C124.162712,14.0592558 125.283051,17.8266977 125.283051,22.4983256 C125.281356,27.5207442 124.212712,31.2379535 121.366102,31.2379535 Z M141.333051,9.9904186 C136.19661,9.9904186 132.486441,14.9132093 132.486441,22.8985116 C132.486441,30.4333953 135.741525,35.0547907 141.944068,35.0547907 C144.129661,35.0547907 146.367797,34.6537674 147.842373,33.9002791 L147.129661,30.4844651 C146.061017,30.9876279 144.587288,31.387814 142.859322,31.387814 C139.960169,31.387814 137.215254,29.8314419 137.163559,23.5532093 L148.75678,23.6042791 C148.808475,22.9512558 148.857627,22.1969302 148.857627,20.992186 C148.857627,14.8629767 146.468644,9.9904186 141.333051,9.9904186 Z M137.214407,20.1867907 C137.367797,17.1226047 138.485593,13.556093 140.976271,13.556093 C142.857627,13.556093 144.383898,15.8667907 144.332203,20.1867907 L137.214407,20.1867907 L137.214407,20.1867907 Z M148.648305,11.052 L148.648305,11.0427907 C148.779661,11.0042791 148.887288,10.9071628 148.887288,10.7472558 C148.887288,10.6308837 148.848305,10.5496744 148.774576,10.496093 C148.701695,10.4433488 148.580508,10.4048372 148.394068,10.4048372 C148.247458,10.4048372 148.15,10.419907 148.047458,10.4333023 L148.047458,11.6455814 L148.242373,11.6455814 L148.242373,11.124 L148.378814,11.124 C148.535593,11.124 148.612712,11.1817674 148.64322,11.3366512 C148.666949,11.4957209 148.69661,11.6070698 148.727966,11.6455814 L148.931356,11.6455814 C148.913559,11.6070698 148.882203,11.5342326 148.85339,11.3466977 C148.828814,11.1675349 148.755932,11.0712558 148.648305,11.052 Z M148.384746,10.9741395 L148.24322,10.9741395 L148.24322,10.563907 C148.277119,10.5597209 148.321186,10.5546977 148.384746,10.5546977 C148.605085,10.5546977 148.683051,10.660186 148.683051,10.7665116 C148.682203,10.9172093 148.545763,10.9741395 148.384746,10.9741395 Z M148.45339,9.9267907 L148.448305,9.9267907 C147.847458,9.9267907 147.358475,10.4098605 147.358475,11.0134884 C147.358475,11.6263256 147.847458,12.1043721 148.448305,12.1043721 C149.054237,12.1043721 149.533051,11.6271628 149.533051,11.0134884 C149.533051,10.4098605 149.054237,9.9267907 148.45339,9.9267907 Z M148.45339,11.9352558 C147.964407,11.9352558 147.568644,11.5308837 147.568644,11.0134884 C147.568644,10.5069767 147.964407,10.095907 148.448305,10.095907 L148.45339,10.095907 C148.941525,10.095907 149.332203,10.5061395 149.332203,11.0185116 C149.332203,11.5292093 148.941525,11.9402791 148.45339,11.9352558 Z M41.0983051,1.03813953 L41.0932203,1.03813953 C40.4915254,1.03813953 40.0033898,1.5212093 40.0033898,2.124 C40.0033898,2.73683721 40.4915254,3.21488372 41.0932203,3.21488372 C41.6991525,3.21488372 42.1771186,2.73767442 42.1771186,2.124 C42.1779661,1.5212093 41.6991525,1.03813953 41.0983051,1.03813953 Z M41.0983051,3.04660465 C40.609322,3.04660465 40.2144068,2.64139535 40.2144068,2.124 C40.2144068,1.61832558 40.6101695,1.2064186 41.0940678,1.2064186 L41.0991525,1.2064186 C41.5881356,1.2064186 41.9788136,1.61665116 41.9788136,2.12818605 C41.9771186,2.64139535 41.5864407,3.05162791 41.0983051,3.04660465 Z M41.2940678,2.16334884 L41.2940678,2.15330233 C41.4254237,2.1147907 41.5330508,2.01767442 41.5330508,1.85860465 C41.5330508,1.74223256 41.4940678,1.66018605 41.4211864,1.60660465 C41.3483051,1.55386047 41.2254237,1.51618605 41.0398305,1.51618605 C40.8940678,1.51618605 40.7957627,1.5304186 40.6932203,1.54548837 L40.6932203,2.75609302 L40.8889831,2.75609302 L40.8889831,2.23534884 L41.0254237,2.23534884 C41.1822034,2.23534884 41.259322,2.29311628 41.2898305,2.448 C41.3135593,2.60706977 41.3432203,2.7175814 41.3728814,2.75693023 L41.5788136,2.75693023 C41.559322,2.7184186 41.529661,2.6455814 41.5,2.45804651 C41.4745763,2.27888372 41.4016949,2.18260465 41.2940678,2.16334884 Z M41.029661,2.08548837 L40.8881356,2.08548837 L40.8881356,1.67525581 C40.9220339,1.67106977 40.9661017,1.6652093 41.029661,1.6652093 C41.2491525,1.6652093 41.3279661,1.77153488 41.3279661,1.87786047 C41.3279661,2.02772093 41.190678,2.08548837 41.029661,2.08548837 Z" id="Shape" fill="#000000"></path>
            </g>
        </g>
    </g>
</svg>