<?xml version="1.0" encoding="UTF-8" standalone="no"?>
<svg width="160px" height="84px" viewBox="0 0 160 84" version="1.1" xmlns="http://www.w3.org/2000/svg" xmlns:xlink="http://www.w3.org/1999/xlink">
    <!-- Generator: Sketch 47.1 (45422) - http://www.bohemiancoding.com/sketch -->
    <title>client-linkedin</title>
    <desc>Created with Sketch.</desc>
    <defs></defs>
    <g id="mockups-2" stroke="none" stroke-width="1" fill="none" fill-rule="evenodd">
        <g id="client-linkedin">
            <g id="LinkedIn_Logo-Copy" transform="translate(5.000000, 24.000000)">
                <g id="g3019" transform="translate(74.826512, 20.273384) scale(-1, 1) rotate(-180.000000) translate(-74.826512, -20.273384) translate(0.326512, 0.273384)">
                    <path d="M109.78553,37.0321175 C109.78553,38.5972421 111.082111,39.8667908 112.681599,39.8667908 L146.07945,39.8667908 C147.678886,39.8667908 148.975519,38.5972421 148.975519,37.0321175 L148.975519,3.12972048 C148.975519,1.5640671 147.678886,0.295047141 146.07945,0.295047141 L112.681599,0.295047141 C111.082111,0.295047141 109.78553,1.5640671 109.78553,3.12972048 L109.78553,37.0321175 L109.78553,37.0321175 Z" id="path14" fill="#000000" fill-rule="nonzero"></path>
                    <polygon id="path16" fill="#000000" points="0.0798900896 6.71998944 16.4350145 6.71998944 16.4350145 12.1075079 5.99860745 12.1075079 5.99860745 32.6624587 0.0798900896 32.6624587"></polygon>
                    <path d="M24.7153904,6.71998944 L24.7153904,24.5883192 L18.7961461,24.5883192 L18.7961461,6.71998944 L24.7153904,6.71998944 Z M21.7557683,27.0280101 C23.8199469,27.0280101 25.1047229,28.4001379 25.1047229,30.1159587 C25.0662534,31.8687925 23.8199469,33.202321 21.7951336,33.202321 C19.7700569,33.202321 18.446179,31.8687925 18.446179,30.1159587 C18.446179,28.4001379 19.7306915,27.0280101 21.7171407,27.0280101 L21.7556102,27.0280101 L21.7557683,27.0280101 Z" id="path18" fill="#000000"></path>
                    <path d="M27.4637465,6.71998944 L33.3830436,6.71998944 L33.3830436,16.6987164 C33.3830436,17.2327623 33.4215131,17.7662794 33.5780787,18.1480429 C34.0057225,19.2145485 34.9796333,20.3196533 36.6149033,20.3196533 C38.7570222,20.3196533 39.6138909,18.6805026 39.6138909,16.2799398 L39.6138909,6.71998944 L45.5326082,6.71998944 L45.5326082,16.9657393 C45.5326082,22.4542507 42.612088,25.0081533 38.7176569,25.0081533 C35.5246355,25.0081533 34.1225539,23.2172489 33.3436255,21.9974035 L33.383149,21.9974035 L33.383149,24.5883192 L27.4638519,24.5883192 C27.5415814,22.9116266 27.4638519,6.71998944 27.4638519,6.71998944 L27.4637465,6.71998944 Z" id="path20" fill="#000000"></path>
                    <path d="M53.882967,32.6624587 L47.9634592,32.6624587 L47.9634592,6.71998944 L53.882967,6.71998944 L53.882967,12.5130656 L55.3623038,14.3816974 L59.9965087,6.71998944 L67.2782585,6.71998944 L59.4903976,17.8117526 L66.3050855,25.3581913 L59.1790054,25.3581913 C59.1790054,25.3581913 54.3114014,18.6064764 53.882967,17.8059363 L53.882967,32.6624587 L53.882967,32.6624587 Z" id="path22" fill="#000000"></path>
                    <path d="M83.1079317,14.1733667 C83.1856612,14.6323289 83.302756,15.5127115 83.302756,16.5078346 C83.302756,21.1270673 80.9658128,25.816096 74.8134327,25.816096 C68.2320914,25.816096 65.1947924,20.5935502 65.1947924,15.8569332 C65.1947924,9.99829101 68.8941884,6.33928346 75.3584349,6.33928346 C77.9287246,6.33928346 80.3037685,6.71998944 82.2511158,7.52052953 L81.4719766,11.4428587 C79.8755977,10.9114566 78.2400641,10.6460199 76.2153036,10.6460199 C73.450453,10.6460199 71.0363073,11.7844366 70.8412722,14.2114373 L83.1079317,14.1744242 L83.1079317,14.1733667 Z M70.8026973,18.1914011 C70.958367,19.7163401 71.9709054,21.965678 74.5020933,21.965678 C77.1884239,21.965678 77.8118933,19.563529 77.8118933,18.1914011 L70.8026973,18.1914011 L70.8026973,18.1914011 Z" id="path24" fill="#000000"></path>
                    <path d="M97.9133149,32.6624587 L97.9133149,23.6820275 L97.8355854,23.6820275 C96.9787168,24.938886 95.1870392,25.7774967 92.8123116,25.7774967 C88.2557835,25.7774967 84.245048,22.1184891 84.2836229,15.8680371 C84.2836229,10.0739034 87.9053421,6.3006841 92.4224522,6.3006841 C94.8756997,6.3006841 97.212116,7.36824714 98.3803241,9.42670327 L98.4974189,9.42670327 L98.7310289,6.71998944 L103.988492,6.71998944 C103.910499,7.97790548 103.832032,10.1505734 103.832032,12.284642 L103.832032,32.6624587 L97.9133149,32.6624587 L97.9133149,32.6624587 Z M97.9133149,14.990827 C97.9133149,14.5339798 97.8743184,14.0760751 97.79622,13.6953692 C97.446253,12.0562184 96.0439079,10.9130429 94.3309611,10.9130429 C91.8775027,10.9130429 90.2808602,12.8948291 90.2808602,16.0203195 C90.2808602,18.9549281 91.6441035,21.317949 94.3695886,21.317949 C96.1995776,21.317949 97.4848806,20.0605618 97.8355854,18.4980809 C97.9133149,18.154388 97.9133149,17.7731533 97.9133149,17.4305179 L97.9133149,14.990827 L97.9133149,14.990827 Z" id="path26" fill="#000000"></path>
                    <path d="M121.665229,6.74113978 L121.665229,24.6099983 L115.745932,24.6099983 L115.745932,6.74113978 L121.665229,6.74113978 Z M118.705554,27.0496892 C120.769732,27.0496892 122.054508,28.421817 122.054508,30.1365802 C122.016039,31.8899428 120.769732,33.2240001 118.744708,33.2240001 C116.719895,33.2240001 115.396017,31.8899428 115.396017,30.1365802 C115.396017,28.421817 116.68053,27.0496892 118.666979,27.0496892 L118.705448,27.0496892 L118.705554,27.0496892 Z" id="path28" fill="#FFFFFF"></path>
                    <path d="M124.940564,6.74113978 L130.859809,6.74113978 L130.859809,16.7198667 C130.859809,17.2539126 130.898278,17.7874298 131.05458,18.1691933 C131.482488,19.2362276 132.456451,20.3413324 134.091668,20.3413324 C136.233577,20.3413324 137.090392,18.7027104 137.090392,16.3005614 L137.090392,6.74113978 L143.009163,6.74113978 L143.009163,16.9868897 C143.009163,22.475401 140.088906,25.0293037 136.194475,25.0293037 C133.00119,25.0293037 131.599319,23.2383992 130.820443,22.0185538 L130.859967,22.0185538 L130.859967,24.6099983 L124.940722,24.6099983 C125.018399,22.9333057 124.940722,6.74113978 124.940722,6.74113978 L124.940564,6.74113978 Z" id="path30" fill="#FFFFFF"></path>
                </g>
            </g>
        </g>
    </g>
</svg>