<?xml version="1.0" encoding="UTF-8" standalone="no"?>
<svg width="160px" height="84px" viewBox="0 0 160 84" version="1.1" xmlns="http://www.w3.org/2000/svg" xmlns:xlink="http://www.w3.org/1999/xlink">
    <!-- Generator: Sketch 47.1 (45422) - http://www.bohemiancoding.com/sketch -->
    <title>client-southwest</title>
    <desc>Created with Sketch.</desc>
    <defs></defs>
    <g id="mockups-2" stroke="none" stroke-width="1" fill="none" fill-rule="evenodd">
        <g id="client-southwest" fill-rule="nonzero">
            <g id="Southwest_Airlines_logo_2014-Copy" transform="translate(6.000000, 29.000000)">
                <g id="Type" transform="translate(0.059298, 0.093999)" fill="#000000">
                    <g id="g4">
                        <path d="M41.3368253,17.8396233 C40.7062636,17.9823403 39.935577,18.0536988 39.1648904,18.0536988 C36.9228931,18.0536988 36.4324562,17.2687553 36.4324562,15.770227 L36.4324562,7.13584931 L32.2287112,7.13584931 L32.2287112,16.2697364 C32.2287112,20.3371705 34.4707086,22.1924914 38.9547032,22.1924914 C41.126638,22.1924914 43.1584481,21.7643404 45.6106327,21.1934725 L45.6106327,7.13584931 L41.3368253,7.13584931 C41.3368253,7.13584931 41.3368253,17.8396233 41.3368253,17.8396233 Z M54.9989964,18.2677742 C53.4576232,18.2677742 53.247436,17.5541893 53.247436,16.3410949 L53.247436,10.7751325 L56.7505568,10.7751325 L56.7505568,7.2072078 L53.247436,7.2072078 L53.247436,2.85433972 L49.043691,2.85433972 L49.043691,7.13584931 L46.9418186,7.13584931 L46.9418186,10.703774 L49.043691,10.703774 L49.043691,16.5551704 C49.043691,19.1240762 49.5341279,22.1211329 53.7378729,22.1211329 C54.9989964,22.1211329 56.0499326,21.8356989 57.2409937,21.4789064 L56.8206192,17.9109818 C56.1900574,18.1250573 55.6295581,18.2677742 54.9989964,18.2677742 Z M10.789612,10.2042645 C10.0189255,9.91883054 9.10811405,9.63339657 8.19730264,9.3479626 C5.74511809,8.63437767 4.97443152,8.2775852 4.97443152,7.13584931 C4.97443152,5.85139644 5.88524292,5.20917 8.12724023,5.28052849 C9.94886304,5.28052849 11.5602986,5.78003794 13.1717342,6.35090589 L14.0825456,2.14075479 C12.1908603,1.42716986 10.4392999,0.784943424 8.26736506,0.784943424 C3.22287112,0.784943424 0.420374495,3.71064164 0.420374495,7.2072078 C0.420374495,9.84747205 1.54137315,11.5600759 4.06362011,12.6304533 C4.76424427,12.9158873 5.67505568,13.2013212 6.58586708,13.4867552 C9.3183013,14.3430571 10.1590503,14.7712081 10.1590503,15.8415855 C10.1590503,17.1260383 9.10811405,17.8396233 6.93617916,17.8396233 C4.97443152,17.8396233 3.15280871,17.2687553 1.26112348,16.4124534 L0.280249663,20.693963 C2.38212214,21.5502649 4.41393219,22.1211329 6.93617916,22.1211329 C12.1207979,22.1211329 14.7831697,19.1954346 14.7831697,15.62751 C14.7831697,12.7731703 13.1717342,11.1319249 10.789612,10.2042645 Z M65.9987956,6.42226438 C64.5975473,6.42226438 63.2663614,6.77905685 62.35555,7.06449082 L62.35555,0 L58.1518051,0 L58.1518051,22.1211329 L62.35555,22.1211329 L62.35555,11.0605664 C63.1262366,10.7751325 63.9669856,10.4896985 65.0179218,10.4896985 C66.6293574,10.4896985 67.2599191,11.1319249 67.2599191,12.7018118 L67.2599191,22.1211329 L71.4636641,22.1211329 L71.4636641,12.2023023 C71.4636641,8.2775852 69.7121037,6.42226438 65.9987956,6.42226438 L65.9987956,6.42226438 Z M23.4008469,6.35090589 C19.1270395,6.35090589 15.6939811,9.41932109 15.6939811,14.2003401 C15.6939811,18.9813592 19.1270395,22.1924914 23.4008469,22.1924914 C27.6746542,22.1924914 31.1077126,19.0527177 31.1077126,14.2003401 C31.1077126,9.3479626 27.6746542,6.35090589 23.4008469,6.35090589 Z M23.4008469,17.9109818 C21.5792241,17.9109818 20.1079133,16.5551704 20.1079133,14.1289816 C20.1079133,11.7027929 21.5091616,10.41834 23.4008469,10.41834 C25.2925321,10.41834 26.6937804,11.7027929 26.6937804,14.1289816 C26.6937804,16.6265289 25.2224697,17.9109818 23.4008469,17.9109818 Z M117.774921,12.9872457 C117.144359,12.7731703 116.513797,12.5590948 115.743111,12.3450193 C114.2718,11.9168683 113.711301,11.7027929 113.711301,11.0605664 C113.711301,10.41834 114.2718,9.99018904 115.602986,9.99018904 C117.004234,9.99018904 118.265358,10.275623 119.666606,10.703774 L120.36723,6.99313233 C118.825857,6.63633986 117.354546,6.35090589 115.673048,6.35090589 C111.679491,6.35090589 109.507556,8.42030219 109.507556,11.2746419 C109.507556,13.2726797 110.48843,14.5571326 112.450177,15.4134345 C113.010677,15.62751 113.641238,15.912944 114.411925,16.1270194 C115.953298,16.5551704 116.723985,16.7692459 116.723985,17.4828308 C116.723985,18.1964157 115.813173,18.4818497 114.55205,18.4818497 C113.010677,18.4818497 111.609428,18.1964157 110.138118,17.6255478 L109.507556,21.3361894 C111.329179,21.8356989 113.010677,22.1924914 114.902362,22.1924914 C119.106107,22.1924914 120.997792,19.9803781 120.997792,17.1973968 C120.92773,15.2707175 120.157043,13.8435477 117.774921,12.9872457 L117.774921,12.9872457 Z M102.010877,6.35090589 C97.5969451,6.35090589 94.4441364,9.49067958 94.4441364,14.4857741 C94.4441364,19.1240762 97.1765706,22.1924914 102.08094,22.1924914 C104.252875,22.1924914 106.004435,21.5502649 107.826058,20.7653215 L107.195496,17.1973968 C105.794248,17.8396233 104.392999,18.3391327 102.711501,18.3391327 C100.189255,18.3391327 99.1383183,17.2687553 98.9981935,15.6988685 L108.45662,15.6988685 C108.45662,15.6988685 108.596744,13.9862647 108.596744,13.6294722 C108.596744,9.56203808 106.42481,6.35090589 102.010877,6.35090589 L102.010877,6.35090589 Z M99.0682559,12.8445288 C99.3485055,11.5600759 99.9790673,9.91883054 101.80069,9.91883054 C103.622313,9.91883054 104.182812,11.7741514 104.182812,12.8445288 L99.0682559,12.8445288 Z M129.265157,18.2677742 C127.723784,18.2677742 127.513597,17.5541893 127.513597,16.3410949 L127.513597,10.7751325 L131.016717,10.7751325 L131.016717,7.13584931 L127.513597,7.13584931 L127.513597,2.85433972 L123.309852,2.85433972 L123.309852,7.13584931 L121.137917,7.13584931 L121.137917,10.7751325 L123.309852,10.7751325 L123.309852,16.6265289 C123.309852,19.1954346 123.940413,22.1924914 128.144158,22.1924914 C129.405282,22.1924914 130.456218,21.9070574 131.647279,21.5502649 L131.156842,17.9823403 C130.456218,18.1250573 129.895719,18.2677742 129.265157,18.2677742 L129.265157,18.2677742 Z M132.067654,0.856301917 C131.016717,0.856301917 130.246031,1.71260383 130.175968,2.78298123 C130.105906,3.85335863 131.016717,4.70966055 131.997591,4.70966055 C133.048528,4.70966055 133.889277,3.85335863 133.889277,2.78298123 C133.889277,1.71260383 133.11859,0.856301917 132.067654,0.856301917 Z M132.067654,4.35286808 C131.226905,4.35286808 130.596343,3.71064164 130.596343,2.78298123 C130.596343,1.85532082 131.226905,1.21309438 132.137716,1.21309438 C132.978465,1.21309438 133.679089,1.85532082 133.609027,2.78298123 C133.538964,3.71064164 132.908403,4.35286808 132.067654,4.35286808 L132.067654,4.35286808 Z M132.277841,2.85433972 C132.628153,2.78298123 132.83834,2.64026425 132.83834,2.28347178 C132.83834,1.92667931 132.558091,1.64124534 132.137716,1.64124534 L131.437092,1.64124534 L131.437092,3.85335863 L131.857466,3.85335863 L131.857466,2.92569822 C131.997591,2.92569822 132.067654,2.99705671 132.137716,3.1397737 L132.628153,3.85335863 L133.11859,3.85335863 L132.698215,3.1397737 C132.417966,2.99705671 132.347903,2.92569822 132.277841,2.85433972 L132.277841,2.85433972 Z M131.997591,2.64026425 L131.787404,2.64026425 L131.787404,1.99803781 L132.067654,1.99803781 C132.347903,1.99803781 132.417966,2.14075479 132.417966,2.28347178 C132.417966,2.56890575 132.207779,2.64026425 131.997591,2.64026425 Z M90.5206412,7.13584931 L87.8582694,15.342076 L85.1958976,7.13584931 L81.5526519,7.13584931 L78.8202177,15.342076 L76.1578459,7.13584931 L71.6037889,7.13584931 L76.8584701,22.1211329 L80.7119029,22.1211329 L83.3742747,13.9862647 L86.0366465,22.1211329 L89.8900794,22.1211329 L95.1447606,7.13584931 L90.5206412,7.13584931 L90.5206412,7.13584931 Z" id="path6"></path>
                    </g>
                </g>
                <g id="g8" transform="translate(133.177888, 5.802678)">
                    <g id="g10">
                        <path d="M11.9106107,0.570867945 C10.5093624,0.570867945 9.3183013,1.0703774 8.40748989,1.56988685 C7.49667849,1.0703774 6.37567983,0.570867945 4.9043691,0.570867945 C2.03181006,0.570867945 0.210187247,2.42618877 0.210187247,5.70867945 C0.210187247,9.63339657 3.92349528,13.4867552 8.40748989,16.6265289 C12.8914845,13.5581137 16.6047925,9.70475506 16.6047925,5.70867945 C16.6047925,2.42618877 14.7131073,0.570867945 11.9106107,0.570867945 Z" id="path12" fill="#CCCCCC"></path>
                        <path d="M0.630561742,5.78003794 C0.630561742,9.77611356 4.83430669,13.5581137 8.33742747,16.055661 C9.38836371,15.342076 10.4392999,14.4857741 11.4201738,13.6294722 C6.72599191,9.63339657 2.2419973,5.99411342 0.700624158,4.70966055 C0.700624158,4.99509452 0.630561742,5.35188698 0.630561742,5.78003794 L0.630561742,5.78003794 Z" id="path21" fill="#000000"></path>
                        <path d="M15.834106,7.63535876 C12.4010476,4.78101904 10.3692375,3.28249068 8.12724023,1.92667931 C7.49667849,1.56988685 6.30561742,0.999018904 4.97443152,0.999018904 C3.71330803,0.999018904 2.59230938,1.42716986 1.82162281,2.21211329 C1.3311859,2.71162274 0.980873821,3.35384918 0.840748989,4.1387926 C2.59230938,5.42324548 7.42661607,8.91981164 12.2609228,12.8445288 C13.8723583,11.2746419 15.2035442,9.49067958 15.834106,7.63535876 L15.834106,7.63535876 Z" id="path28" fill="#000000"></path>
                        <path d="M14.9232946,2.21211329 C14.152608,1.42716986 13.1016717,0.999018904 11.8405483,0.999018904 C10.5093624,0.999018904 9.52848854,1.42716986 8.75780197,1.85532082 C10.0889879,2.64026425 12.9615469,4.28150959 15.9742308,6.56498137 C16.0442932,6.27954739 16.0442932,5.92275493 16.0442932,5.63732096 C16.1143556,4.21015109 15.6939811,2.99705671 14.9232946,2.21211329 Z" id="path37" fill="#000000"></path>
                    </g>
                </g>
            </g>
        </g>
    </g>
</svg>