<?xml version="1.0" encoding="UTF-8" standalone="no"?>
<svg width="160px" height="84px" viewBox="0 0 160 84" version="1.1" xmlns="http://www.w3.org/2000/svg" xmlns:xlink="http://www.w3.org/1999/xlink">
    <!-- Generator: Sketch 47.1 (45422) - http://www.bohemiancoding.com/sketch -->
    <title>client-intuit</title>
    <desc>Created with Sketch.</desc>
    <defs></defs>
    <g id="mockups-2" stroke="none" stroke-width="1" fill="none" fill-rule="evenodd">
        <g id="client-intuit">
            <g id="Intuit_Logo-Copy" transform="translate(7.000000, 14.000000)">
                <g id="Group">
                    <path d="M100.707375,43.1685128 L96.74625,43.1685128 C95.9415,43.1685128 95.324625,42.7345299 95.26425,41.9289915 L95.20125,40.3758291 C92.35275,42.6751111 88.94925,43.9142564 85.35975,43.9142564 C78.42975,43.9142564 75.584625,39.5112479 75.584625,32.8055726 L75.584625,14.4500513 C75.584625,13.3944274 76.203,13.0217436 77.19,13.0217436 L81.523875,13.0217436 C82.515,13.0217436 83.072625,13.3304957 83.072625,14.4500513 L83.072625,31.5013675 C83.072625,34.9160684 83.9385,37.2728889 87.652875,37.2728889 C90.00075,37.2728889 92.973375,35.9713162 94.83,34.2955556 L94.83,14.4500513 C94.83,13.3944274 95.388,13.0217436 96.375,13.0217436 L100.768875,13.0217436 C101.760375,13.0217436 102.318375,13.3304957 102.318375,14.4500513 L102.318375,41.4322051 C102.317625,42.7345299 101.94375,43.1685128 100.707375,43.1685128 Z M0,14.2597607 C0,13.5170256 0.372,13.0202393 1.113375,13.0202393 L6.348375,13.0202393 C7.0905,13.0202393 7.523625,13.4549744 7.523625,14.2597607 L7.523625,41.6172308 C7.523625,42.7345299 7.026375,43.1685128 5.97675,43.1685128 L1.6095,43.1685128 C0.499125,43.1685128 0,42.7345299 0,41.6172308 L0,14.2597607 Z M110.06025,14.2597607 C110.06025,13.5170256 110.434125,13.0202393 111.17475,13.0202393 L116.409375,13.0202393 C117.153,13.0202393 117.586125,13.4549744 117.586125,14.2597607 L117.586125,41.6172308 C117.586125,42.7345299 117.090375,43.1685128 116.037,43.1685128 L111.66975,43.1685128 C110.559,43.1685128 110.06025,42.7345299 110.06025,41.6172308 L110.06025,14.2597607 Z M40.695,43.1685128 L36.24,43.1685128 C35.126625,43.1685128 34.75575,42.6108034 34.75575,41.5544274 L34.75575,24.6738462 C34.75575,21.2625299 33.829125,18.8414017 30.052125,18.8414017 C27.637875,18.8414017 24.669,20.1471111 22.750875,21.8202393 L22.750875,41.6168547 C22.750875,42.674735 22.317375,43.1681368 21.267375,43.1681368 L16.74825,43.1681368 C15.81975,43.1681368 15.262125,42.674735 15.262125,41.6792821 L15.262125,14.5790427 C15.262125,13.5854701 15.69825,13.0277607 16.8105,13.0277607 L20.830875,13.0277607 C21.69675,13.0277607 22.257,13.2748376 22.317,14.2056068 L22.378125,15.862188 C25.227,13.5677949 28.816125,12.2654701 32.405625,12.2654701 C39.336375,12.2654701 42.18225,16.6086838 42.18225,23.3730256 L42.18225,41.5544274 C42.181875,42.6108034 41.81175,43.1685128 40.695,43.1685128 Z M139.54275,4.55230769 C139.54275,7.06632479 137.51025,9.10235897 135.003375,9.10235897 C132.497625,9.10235897 130.465125,7.06632479 130.465125,4.55230769 C130.465125,2.0382906 132.497625,-1.77635684e-15 135.003375,-1.77635684e-15 C137.51025,-1.77635684e-15 139.54275,2.0382906 139.54275,4.55230769 Z M146.001,13.0202393 C146.741625,13.0202393 147.174375,13.2673162 147.174375,14.0751111 L147.174375,18.4454017 C147.174375,19.189641 146.68125,19.6243761 145.9365,19.6243761 L138.764625,19.6243761 L138.764625,41.6168547 C138.764625,42.7341538 138.2715,43.1681368 137.156625,43.1681368 L132.849375,43.1681368 C131.734875,43.1681368 131.241375,42.7341538 131.241375,41.6168547 L131.239875,19.6243761 L124.069875,19.6243761 C123.325875,19.6243761 122.8305,19.189641 122.8305,18.4454017 L122.8305,14.0751111 C122.8305,13.2673162 123.265125,13.0202393 124.005375,13.0202393 L146.001,13.0202393 Z M62.749875,4.55230769 C62.749875,7.06632479 60.71925,9.10235897 58.212,9.10235897 C55.706625,9.10235897 53.672625,7.06632479 53.672625,4.55230769 C53.672625,2.0382906 55.70625,-1.77635684e-15 58.212,-1.77635684e-15 C60.71925,-1.77635684e-15 62.749875,2.0382906 62.749875,4.55230769 Z M69.2085,13.0202393 C69.950625,13.0202393 70.384125,13.2673162 70.384125,14.0751111 L70.384125,18.4454017 C70.384125,19.189641 69.889875,19.6243761 69.145875,19.6243761 L61.974,19.6243761 L61.974,41.6168547 C61.974,42.7341538 61.479375,43.1681368 60.3645,43.1681368 L56.058375,43.1681368 C54.94425,43.1681368 54.450375,42.7341538 54.450375,41.6168547 L54.450375,19.6243761 L47.276625,19.6243761 C46.5345,19.6243761 46.0395,19.189641 46.0395,18.4454017 L46.0395,14.0751111 C46.0395,13.2673162 46.47225,13.0202393 47.2155,13.0202393 L69.2085,13.0202393 Z" id="Combined-Shape" fill="#000000" fill-rule="nonzero"></path>
                    <g transform="translate(45.750000, 0.000000)"></g>
                    <g transform="translate(122.625000, 0.000000)"></g>
                </g>
                <path d="M147.961875,39.3435214 C149.05575,39.3435214 149.97075,40.2081026 149.97075,41.3423248 C149.97075,42.4964786 149.05575,43.3633162 147.961875,43.3633162 C146.863125,43.3633162 145.94175,42.4964786 145.94175,41.3423248 C145.942125,40.2081026 146.8635,39.3435214 147.961875,39.3435214 Z M147.961875,43.0684786 C148.89,43.0684786 149.607375,42.3272479 149.607375,41.3423248 C149.607375,40.381094 148.89,39.638359 147.961875,39.638359 C147.023625,39.638359 146.305125,40.3814701 146.305125,41.3423248 C146.305125,42.3276239 147.023625,43.0684786 147.961875,43.0684786 Z M147.179625,40.1761368 L148.084125,40.1761368 C148.642125,40.1761368 148.905375,40.3965128 148.905375,40.8489231 C148.905375,41.2712479 148.63875,41.4513846 148.2885,41.4878632 L148.959375,42.525812 L148.567125,42.525812 L147.93,41.513812 L147.543375,41.513812 L147.543375,42.525812 L147.17925,42.525812 L147.17925,40.1761368 L147.179625,40.1761368 Z M147.543375,41.2185983 L147.92475,41.2185983 C148.2465,41.2185983 148.5405,41.2035556 148.5405,40.8327521 C148.5405,40.5202393 148.273875,40.4728547 148.02675,40.4728547 L147.54375,40.4728547 L147.54375,41.2185983 L147.543375,41.2185983 Z" id="Shape" fill="#000000" fill-rule="nonzero"></path>
            </g>
        </g>
    </g>
</svg>