<?xml version="1.0" encoding="UTF-8" standalone="no"?>
<svg width="160px" height="84px" viewBox="0 0 160 84" version="1.1" xmlns="http://www.w3.org/2000/svg" xmlns:xlink="http://www.w3.org/1999/xlink">
    <!-- Generator: Sketch 47.1 (45422) - http://www.bohemiancoding.com/sketch -->
    <title>client-oakley</title>
    <desc>Created with Sketch.</desc>
    <defs></defs>
    <g id="mockups-2" stroke="none" stroke-width="1" fill="none" fill-rule="evenodd">
        <g id="client-oakley" fill="#000000">
            <g id="Oakley_logo" transform="translate(5.000000, 7.000000)">
                <g id="g4" transform="translate(24.203407, 0.282769)">
                    <path d="M49.5674125,0.00970549231 C58.2285992,-1.73472348e-18 65.0337549,0.410201231 72.4050584,1.66620938 C80.452821,3.03754462 87.9583658,4.88729692 94.0024319,8.35675538 C94.44893,8.61308 94.7900778,8.78036769 95.3699416,9.15317692 C97.7258755,10.6686754 100.658463,13.0961738 101.222568,16.3535338 C101.678405,18.9871677 100.449222,21.1323554 99.1231518,22.6615631 C97.7465953,24.2487062 96.0583658,25.4567554 94.2566148,26.4846846 C86.9069066,30.6794462 77.2164397,32.9123846 67.1568093,34.0672923 C62.4820039,34.6039692 57.5798638,34.9912769 51.8258755,34.9912769 C46.2318093,34.9912769 41.2920233,34.7650308 36.5264591,34.2903231 C26.8347082,33.3251231 16.6837354,31.2900769 9.04511673,27.4084062 C7.14297665,26.4421538 5.36311284,25.3870985 3.765,23.9677985 C2.24772374,22.6204646 0.801391051,20.9494 0.393589494,18.6474769 C-0.291828794,14.7801 2.42924125,11.9671938 4.6875,10.2364692 C7.10766537,8.38130923 10.2220623,6.83155231 13.2118482,5.71256923 C19.4260506,3.38609231 26.940642,1.84034 34.3955253,0.933443692 C39.3639105,0.329129692 43.7725681,0.0159854308 49.5674125,0.00970549231 Z M49.7903696,3.48229077 C43.0669261,3.48229077 36.6817121,4.70489692 31.0876459,6.76391231 C28.3481323,7.77214 25.9134047,9.01044308 23.7716732,10.8099769 C21.9028016,12.3805462 19.6927821,14.8988354 20.2093191,18.3605769 C20.6549416,21.3464708 23.0251751,23.4762538 25.0440467,24.8918415 C27.2978405,26.4718231 30.0014591,27.6664554 32.7417315,28.5553923 C38.6617704,30.4762923 45.2938716,31.3035231 52.1439689,31.2316154 C58.651751,31.1632154 65.4968872,30.0328615 70.8782101,27.9185415 C73.5318093,26.8757631 76.0777237,25.5991969 78.161965,23.8404985 C80.081323,22.2210846 82.1188716,19.6054569 81.5973735,16.3535338 C81.1301556,13.4407462 78.9125486,11.3109338 76.7626459,9.82226923 C74.398249,8.18490769 71.8917315,7.10731538 69.0653696,6.15845538 C64.7372568,4.70574462 59.8196498,3.84396308 55.1019455,3.60988308 C53.6220817,3.53625077 51.6752918,3.39550462 49.8536965,3.48229077 C49.8326848,3.48343077 49.8113813,3.48229077 49.7903696,3.48229077 L49.7903696,3.48229077 Z" id="path6"></path>
                </g>
                <g id="g16" transform="translate(0.173138, 41.804490)">
                    <path d="M6.89816148,0.0324461538 C9.76885214,0.0263076923 12.3229086,0 14.6589689,0.4788 C15.4421206,0.638984615 16.3221595,0.9424 16.5991926,1.52964615 C16.8590953,2.08093846 16.7582101,2.99498462 16.7582101,4.33346154 C16.7582101,6.81778462 16.7582101,9.09632308 16.7582101,11.6928923 C16.7582101,12.1638 16.8177724,12.7580615 16.6946498,13.0950923 C16.3119163,14.1395077 14.2303599,14.3865077 13.16393,14.4967077 C10.2923638,14.7939846 6.87621595,14.7744 3.93998054,14.4967077 C2.78861673,14.3876769 0.729002918,14.1400923 0.282140078,13.1582308 C0.0162444455,12.5744923 0.15474893,11.1959692 0.15474893,10.3231385 C0.15474893,8.20215385 0.15474893,6.65029231 0.15474893,4.4612 C0.15474893,3.42701538 0,2.06135385 0.409243191,1.43435385 C0.823902724,0.799169231 2.18500973,0.446353846 3.30388132,0.287338462 C4.55212062,0.109907692 5.50427043,0.0353692308 6.89816148,0.0324461538 Z M6.64365759,1.84855385 C6.52853113,2.08327692 6.57983463,2.75236923 6.57983463,3.15487692 C6.57983463,5.61376923 6.57983463,7.68009231 6.57983463,10.1001077 C6.57983463,10.9226615 6.4179572,12.3497077 6.67529183,12.8080462 C6.9417607,13.2821692 7.67816148,13.2766154 8.42483463,13.2859692 C9.01590467,13.2932769 9.91733463,13.3289385 10.2060117,12.8399077 C10.4673444,12.3967692 10.3014981,11.0755385 10.3014981,10.1956923 C10.3014981,7.942 10.3014981,6.82333846 10.3014981,4.65207692 C10.3014981,4.05576923 10.450535,2.37090769 10.269572,1.91227692 C10.0387354,1.32678462 8.50920233,1.36566154 7.97941634,1.40249231 C7.59922179,1.4288 6.84116732,1.44575385 6.64365759,1.84855385 L6.64365759,1.84855385 Z" id="path18"></path>
                </g>
                <g id="g20" transform="translate(26.759769, 41.995659)">
                    <path d="M5.15276265,0.000584615385 C7.73019455,-5.42101086e-20 10.5804864,0.000876923077 13.2635603,0.000584615385 C15.1257198,4.74093846 16.9948833,9.47427692 18.8299027,14.2418154 C16.3913813,14.2418154 13.9528599,14.2418154 11.5140467,14.2418154 C11.1119066,13.0728769 10.744786,11.8694462 10.337393,10.7051846 C8.96696498,10.6543231 7.38145914,10.6508154 6.01161479,10.7051846 C5.61998054,11.8317385 5.32085603,13.0506615 4.99400778,14.2418154 C3.32912451,14.2418154 1.66462062,14.2418154 -7.10542736e-15,14.2418154 C1.23884241,10.7005077 2.54865759,7.15423077 3.81677043,3.60093846 C4.24254864,2.40803077 4.73311284,1.05376923 5.15276265,0.000584615385 L5.15276265,0.000584615385 Z M6.32970817,9.04838462 C7.44391051,8.99606154 8.77785992,8.99606154 9.89206226,9.04838462 C9.25821012,7.17732308 8.64770428,5.28258462 7.95169261,3.47349231 C7.44128405,5.36209231 6.84332685,7.16329231 6.32970817,9.04838462 L6.32970817,9.04838462 Z" id="path22"></path>
                </g>
                <g id="g24" transform="translate(56.340353, 41.892182)">
                    <path d="M6.96595331,5.83884615 C8.47966926,4.27207692 10.0622568,2.51004615 11.6416342,0.773153846 C11.8327821,0.562692308 12.1727626,0.150246154 12.3414397,0.104061538 C12.7205253,8.74300632e-16 13.3958171,0.104061538 13.8364786,0.104061538 C15.2894942,0.104061538 16.8285992,0.130369231 18.257393,0.0722 C18.3189689,0.243784615 18.0837549,0.333523077 18.0029183,0.422676923 C16.3537938,2.24170769 14.5812257,4.1724 12.8819066,5.96629231 C14.5654669,8.75110769 16.3660506,11.5885385 17.9714008,14.3452923 C15.5220817,14.3452923 13.0727626,14.3452923 10.6237354,14.3452923 C9.32597276,12.3529231 8.2266537,10.1617846 6.96595331,8.13287692 C6.96595331,10.2035846 6.96595331,12.2742923 6.96595331,14.3452923 C4.65466926,14.3452923 2.34338521,14.3452923 0.0321011673,14.3452923 C0.0105058366,9.74641538 0.0744163424,4.788 0,0.135923077 C2.20593385,0.0619692308 4.71770428,0.124815385 6.87023346,0.104061538 C7.04474708,0.0856461538 6.96595331,0.489030769 6.96595331,0.709430769 C6.96595331,2.32881538 6.96595331,4.20016923 6.96595331,5.83884615 Z" id="path26"></path>
                </g>
                <g id="g28" transform="translate(85.125762, 41.920244)">
                    <path d="M0.0957198444,0.076 C2.39620623,0.076 4.69727626,0.076 6.99805447,0.076 C6.99776265,4.1648 6.99805447,8.42313846 6.99805447,12.4055385 C9.28803502,12.4265846 11.6629377,12.3631538 13.9000973,12.4374 C13.9000973,13.0641077 13.9000973,13.6905231 13.9000973,14.3172308 C9.27723735,14.3172308 4.65466926,14.3172308 0.0321011673,14.3172308 C0.105642023,9.94986154 0.0434824903,4.78098462 0.0639105058,0.139723077 C-6.9388939e-18,0.111369231 0.0779182879,0 0.0957198444,0.076 Z" id="path30"></path>
                </g>
                <g id="g32" transform="translate(109.317785, 41.944798)">
                    <path d="M0.045233463,0.0514461538 C4.57266537,0.0514461538 9.09951362,0.0514461538 13.6269455,0.0514461538 C13.6269455,0.656815385 13.6269455,1.26218462 13.6269455,1.86755385 C11.4215953,1.86755385 9.21653696,1.86755385 7.01118677,1.86755385 C6.93677043,3.25893846 7.00038911,4.78770769 6.97937743,6.23229231 C8.67577821,6.25333846 10.4568093,6.18990769 12.1003891,6.26415385 C12.1123541,6.87858462 12.0773346,7.46641538 12.1321984,7.92095385 C10.425,7.92095385 8.71809339,7.92095385 7.01118677,7.92095385 C7.01118677,9.42867692 7.01118677,10.9366923 7.01118677,12.445 C9.14212062,12.5189538 11.4110895,12.4555231 13.595428,12.4768615 C13.595428,13.0819385 13.595428,13.6873077 13.595428,14.2926769 C9.06799611,14.2926769 4.54085603,14.2926769 0.0137159533,14.2926769 C0.0137159533,9.56693846 0.0137159533,4.84090769 0.0137159533,0.115169231 C0,0.0540769231 0.035311284,0 0.045233463,0.0514461538 Z" id="path34"></path>
                </g>
                <g id="g36" transform="translate(131.024011, 41.958536)">
                    <path d="M18.8932879,0.00584615385 C18.920428,0 18.9230545,0.0184153846 18.9250973,0.0377076923 C17.0500973,3.01281538 14.9422179,6.03118462 12.9770428,9.02207692 C12.9977626,10.7332462 12.9356031,12.6949231 13.009144,14.2470769 C10.7398833,14.3213231 8.33317121,14.2576 6.01138132,14.2789385 C6.00963035,13.0328308 6.01138132,11.7168615 6.01138132,10.3602615 C6.01138132,9.92589231 6.09192607,9.43189231 6.01138132,9.05393846 C5.94075875,8.72246154 5.49571984,8.27026154 5.2479572,7.90721538 C3.46284047,5.28784615 1.68706226,2.61703077 0,0.0377076923 C2.44902724,0.0377076923 4.89805447,0.0377076923 7.34708171,0.0377076923 C8.43064202,1.74536923 9.41439689,3.553 10.4325875,5.32643077 C11.4995136,3.59158462 12.4896887,1.77956923 13.5496109,0.0377076923 C15.320428,0.0166615385 17.1755837,0.0800923077 18.8932879,0.00584615385 Z" id="path38"></path>
                </g>
            </g>
        </g>
    </g>
</svg>