<?xml version="1.0" encoding="UTF-8" standalone="no"?>
<svg width="250px" height="64px" viewBox="0 0 250 64" version="1.1" xmlns="http://www.w3.org/2000/svg" xmlns:xlink="http://www.w3.org/1999/xlink" xmlns:sketch="http://www.bohemiancoding.com/sketch/ns">
    <!-- Generator: Sketch 3.4.4 (17249) - http://www.bohemiancoding.com/sketch -->
    <title>logo</title>
    <desc>Created with Sketch.</desc>
    <defs>
        <ellipse id="path-1" cx="27.8508883" cy="36.3540306" rx="27.4026725" ry="27.1388954"></ellipse>
    </defs>
    <g id="Page-1" stroke="none" stroke-width="1" fill="none" fill-rule="evenodd" sketch:type="MSPage">
        <g id="home" sketch:type="MSArtboardGroup" transform="translate(-60.000000, -20.000000)">
            <g id="header" sketch:type="MSLayerGroup">
                <g id="logo" transform="translate(60.000000, 20.000000)">
                    <g id="Group">
                        <mask id="mask-2" sketch:name="Mask" fill="white">
                            <use xlink:href="#path-1"></use>
                        </mask>
                        <use id="Mask" stroke="#D5EFFF" stroke-width="3.14999986" fill="#FFFFFF" sketch:type="MSShapeGroup" xlink:href="#path-1"></use>
                        <path d="M9.93166453,44.5217391 L-6.66119888,66.8382609 L27.7097325,66.8382609 L9.93166453,44.5217391 Z" id="Shape-Copy-2" fill="#65BEF6" sketch:type="MSShapeGroup" mask="url(#mask-2)"></path>
                        <path d="M28.7176353,38.0104348 L6.69778278,66.8382609 L51.3612798,66.8382609 L28.7176353,38.0104348 Z" id="Shape" fill="#4797EB" sketch:type="MSShapeGroup" mask="url(#mask-2)"></path>
                        <path d="M45.756989,44.5217391 L29.1641256,66.8382609 L63.5350569,66.8382609 L45.756989,44.5217391 Z" id="Shape" fill="#65BEF6" sketch:type="MSShapeGroup" mask="url(#mask-2)"></path>
                        <path d="M35.8814445,8.31081575 C35.7095138,7.79547033 35.5375831,6.70751888 36.1679957,5.56230684 C37.0849594,3.90174937 38.8042664,3.67270696 39.8931609,3.90174937 C41.3259167,4.18805238 42.12826,5.27600382 42.4148112,6.07765226 C42.8159828,7.1656037 42.4721214,7.90999153 42.1855702,7.96725213 C42.0709497,7.96725213 40.6381939,7.45190671 39.1481278,7.68094912 C37.6580618,7.90999153 40.2370223,9.45602779 40.2370223,9.45602779 C40.2370223,9.45602779 40.6381939,9.79959141 39.7785404,10.0858944 C39.3200585,10.2576762 40.179712,10.715761 39.9504711,11.0593247 C39.7212302,11.4028883 38.6323357,10.143155 38.7469562,10.9448035 C38.7469562,11.1165853 38.8615767,11.9182337 38.2311641,12.0900155 C26.8837379,4.18805238 17.4848596,13.0061851 16.5105857,13.6933124 C15.8801731,14.1513972 14.390107,14.2659184 13.8170047,12.6053609 C13.8170047,12.6053609 12.3269386,11.8609731 10.0918395,12.1472761 L12.3269386,17.3007303 C12.3269386,17.3007303 14.5047275,17.6442939 14.5620377,19.4766332 C14.5620377,20.6218453 14.390107,23.1413118 14.390107,23.1413118 L16.109414,21.8243179 C16.2813447,22.9122693 15.1924503,24.7446086 15.1924503,24.7446086 L16.7398266,24.2292632 C17.1983085,24.114742 17.7141006,24.0002208 18.4591336,25.0309116 C18.9176155,25.7180389 28.7176654,38.658935 28.7176654,38.658935 L37.1995799,24.114742 C37.8299925,23.0840512 39.6066097,25.0309116 39.6066097,24.9163904 C39.7785404,24.0574814 39.6639199,23.5993966 40.179712,22.1678815 C40.408953,21.4807543 41.5551576,19.8774574 42.2428804,20.8508877 C42.4721214,21.1944513 42.873293,19.5338938 42.9879135,19.4193726 C43.102534,19.3048514 43.4463954,19.8774574 43.6756363,19.8774574 C44.0194977,19.1330696 43.9621875,18.8467666 44.0194977,18.7322454 C44.1341182,18.5604636 44.0768079,18.3886818 44.3060489,18.6177242 C44.4206693,18.7322454 44.3633591,19.5911544 44.821841,19.7056756 C44.9364614,19.7629362 45.4522535,18.3886818 45.9107354,19.1330696 C45.9680456,19.1903302 46.6557684,21.9960997 46.7130787,22.1678815 C46.8850094,22.5687057 47.4008015,20.507324 47.4008015,20.507324 C47.4008015,20.507324 47.6300424,22.1678815 47.7446629,21.8815785 C47.9165936,21.4807543 48.7189368,19.7056756 48.8335573,19.4766332 C49.0627982,19.1903302 49.3493494,19.075809 50.0943824,19.1903302 C50.8967257,19.362112 52.1575508,19.5338938 51.9283099,18.9040272 C51.699069,18.2169 52.8452736,18.1023787 52.8452736,18.1023787 L52.9598941,16.8999061 C52.9598941,16.8999061 53.3037555,16.4990819 53.3037555,16.4418213 L53.4756862,15.7546941 C53.189135,15.4111304 52.5587225,15.0675668 52.1002406,14.6667426 C50.2090029,13.1207063 48.3177652,9.11246418 47.7446629,7.2228643 C47.6873526,7.1083431 46.8276991,7.45190671 46.7703889,7.33738551 C46.7703889,7.33738551 47.4581117,6.76477948 47.5154219,6.65025828 C47.8019731,5.96313105 47.1142503,4.41709479 46.5984582,3.55818575 C45.7961149,2.2984525 42.873293,-0.736359423 38.2311641,0.866937443 C35.996065,1.61132527 34.9644808,3.15736154 34.5059989,4.5888766 C33.9902068,6.36395527 34.4486887,8.02451274 34.8498603,8.71163996 C34.8498603,8.71163996 35.3656524,9.6850702 36.0533752,9.39876719 C36.2253059,9.22698539 35.9387548,8.59711876 35.8814445,8.31081575 L35.8814445,8.31081575 Z M28.6603551,37.3992017 L24.705949,24.8018692 L30.7235235,25.4889965 L28.6603551,37.3992017 L28.6603551,37.3992017 Z" id="Shape" fill="#19395C" sketch:type="MSShapeGroup"></path>
                    </g>
                    <g id="MOUNTAIN-GOAT-+-SOFTWARE" transform="translate(68.011710, 19.091743)" sketch:type="MSShapeGroup">
                        <path d="M0.780279752,15.8719968 L0.780279752,0.450612496 L3.970911,0.450612496 L8.5256527,10.7161217 L12.6411046,0.450612496 L15.8548564,0.450612496 L15.8548564,15.8719968 L12.7798277,15.8719968 L12.7798277,7.24804428 L9.05742457,15.9644789 L7.94763979,15.9644789 L3.85530842,7.15556221 L3.85530842,15.8719968 L0.780279752,15.8719968 Z M23.240288,15.5020686 C22.3462903,15.0242422 21.6064412,14.4077013 21.0207185,13.6524273 C20.4349958,12.8971533 19.9957104,12.0378494 19.7028491,11.0744897 C19.4099877,10.1111301 19.2635593,9.1362247 19.2635593,8.14974441 C19.2635593,7.16326412 19.4099877,6.18835876 19.7028491,5.2249991 C19.9957104,4.26163944 20.4349958,3.40233551 21.0207185,2.64706154 C21.6064412,1.89178757 22.3462903,1.28295339 23.240288,0.820540756 C24.1342858,0.358128118 25.1746986,0.126925268 26.3615577,0.126925268 C27.5638306,0.126925268 28.6119502,0.358128118 29.505948,0.820540756 C30.3999457,1.28295339 31.1475016,1.89178757 31.748638,2.64706154 C32.3497745,3.40233551 32.7967666,4.26163944 33.089628,5.2249991 C33.3824893,6.18835876 33.5289178,7.16326412 33.5289178,8.14974441 C33.5289178,9.1362247 33.3824893,10.1111301 33.089628,11.0744897 C32.7967666,12.0378494 32.3497745,12.8971533 31.748638,13.6524273 C31.1475016,14.4077013 30.3999457,15.0203888 29.505948,15.4905083 C28.6119502,15.9606278 27.5638306,16.1956841 26.3615577,16.1956841 C25.1746986,16.1956841 24.1342858,15.9644812 23.240288,15.5020686 L23.240288,15.5020686 Z M23.4252522,11.8259065 C23.7643548,12.3191466 24.1766665,12.7121915 24.6621998,13.0050528 C25.1477331,13.2979142 25.7141801,13.4443426 26.3615577,13.4443426 C27.0089354,13.4443426 27.5830892,13.2979142 28.0840362,13.0050528 C28.5849832,12.7121915 29.0050017,12.3191466 29.3441043,11.8259065 C29.6832069,11.3326664 29.9375301,10.7662194 30.1070814,10.1265486 C30.2766327,9.48687774 30.3614071,8.82794961 30.3614071,8.14974441 C30.3614071,7.47153921 30.2766327,6.81261109 30.1070814,6.17294027 C29.9375301,5.53326946 29.6832069,4.96682247 29.3441043,4.47358233 C29.0050017,3.98034218 28.5849832,3.58729733 28.0840362,3.294436 C27.5830892,3.00157466 27.0089354,2.85514619 26.3615577,2.85514619 C25.7141801,2.85514619 25.1477331,3.00157466 24.6621998,3.294436 C24.1766665,3.58729733 23.7643548,3.98034218 23.4252522,4.47358233 C23.0861496,4.96682247 22.8318264,5.53326946 22.6622751,6.17294027 C22.4927238,6.81261109 22.4079495,7.47153921 22.4079495,8.14974441 C22.4079495,8.82794961 22.4927238,9.48687774 22.6622751,10.1265486 C22.8318264,10.7662194 23.0861496,11.3326664 23.4252522,11.8259065 L23.4252522,11.8259065 Z M39.9664083,10.2768319 C39.9664083,11.2016572 40.236145,11.9607732 40.7756264,12.5542028 C41.3151078,13.1476323 42.0934907,13.4443426 43.1107985,13.4443426 C44.1281063,13.4443426 44.9026359,13.1476323 45.4344104,12.5542028 C45.9661849,11.9607732 46.2320682,11.2016572 46.2320682,10.2768319 L46.2320682,0.450612496 L49.3533379,0.450612496 L49.3533379,10.5773986 C49.3533379,11.4559826 49.1914959,12.2420723 48.8678071,12.9356913 C48.5441182,13.6293102 48.0971261,14.2188775 47.5268171,14.7044108 C46.9565082,15.189944 46.2937267,15.5598686 45.5384527,15.8141956 C44.7831788,16.0685225 43.966262,16.1956841 43.087678,16.1956841 C42.2245078,16.1956841 41.4114444,16.0685225 40.6484635,15.8141956 C39.8854827,15.5598686 39.2227012,15.189944 38.6600991,14.7044108 C38.0974971,14.2188775 37.6543583,13.6293102 37.3306695,12.9356913 C37.0069806,12.2420723 36.8451386,11.4559826 36.8451386,10.5773986 L36.8451386,0.450612496 L39.9664083,0.450612496 L39.9664083,10.2768319 Z M53.4094153,15.8719968 L53.4094153,0.450612496 L56.6000465,0.450612496 L62.8425859,10.0687473 L62.8425859,0.450612496 L65.9176146,0.450612496 L65.9176146,15.8719968 L63.1893936,15.8719968 L56.4844439,5.67584917 L56.4844439,15.8719968 L53.4094153,15.8719968 Z M73.0024795,15.8719968 L73.0024795,3.24819496 L68.4014968,3.24819496 L68.4014968,0.450612496 L80.724732,0.450612496 L80.724732,3.24819496 L76.1468698,3.24819496 L76.1468698,15.8719968 L73.0024795,15.8719968 Z M79.5786932,15.8719968 L85.9137146,0.450612496 L88.1101637,0.450612496 L94.5376672,15.8719968 L91.1851923,15.8719968 L89.9366845,12.7738477 L83.9947118,12.7738477 L82.7230834,15.8719968 L79.5786932,15.8719968 Z M84.9426529,10.1612293 L88.9193817,10.1612293 L86.9310173,5.09783626 L84.9426529,10.1612293 Z M96.9290674,15.8719968 L96.9290674,0.450612496 L100.050337,0.450612496 L100.050337,15.8719968 L96.9290674,15.8719968 Z M104.198896,15.8719968 L104.198896,0.450612496 L107.389528,0.450612496 L113.632067,10.0687473 L113.632067,0.450612496 L116.707096,0.450612496 L116.707096,15.8719968 L113.978875,15.8719968 L107.273925,5.67584917 L107.273925,15.8719968 L104.198896,15.8719968 Z M132.4259,10.415555 L132.4259,7.75669563 L137.859222,7.75669563 L137.859222,15.1783814 C137.227258,15.4558289 136.471995,15.6947385 135.593411,15.8951174 C134.714827,16.0954962 133.597347,16.1956841 132.240936,16.1956841 C131.254456,16.1956841 130.337351,16.0184286 129.489595,15.6639122 C128.641838,15.3093958 127.909696,14.7891894 127.293146,14.1032773 C126.676596,13.4173653 126.194923,12.5811816 125.848113,11.5947013 C125.501304,10.608221 125.327902,9.48303383 125.327902,8.21910596 C125.327902,6.83186805 125.512864,5.63346661 125.882794,4.62386568 C126.252724,3.61426476 126.74981,2.77422773 127.374068,2.10372941 C127.998325,1.43323108 128.718907,0.936144955 129.535836,0.612456109 C130.352765,0.288767263 131.215922,0.126925268 132.125334,0.126925268 C133.512572,0.126925268 134.641612,0.404368689 135.512489,0.959263853 C136.383366,1.51415902 137.088535,2.3619028 137.628017,3.50252064 L135.10788,4.91287213 C134.799605,4.26549444 134.410414,3.76070155 133.940294,3.39847832 C133.470175,3.03625509 132.888314,2.85514619 132.194695,2.85514619 C131.732283,2.85514619 131.277584,2.96304085 130.830585,3.17883341 C130.383586,3.39462598 129.986688,3.72601673 129.639878,4.17301561 C129.293069,4.6200145 129.015625,5.17875472 128.80754,5.84925304 C128.599454,6.51975137 128.495413,7.30969444 128.495413,8.21910596 C128.495413,9.0206212 128.603307,9.74120342 128.8191,10.3808742 C129.034892,11.020545 129.327749,11.5677251 129.697679,12.0224309 C130.06761,12.4771366 130.499188,12.8277943 130.992428,13.0744144 C131.485668,13.3210344 132.017435,13.4443426 132.587744,13.4443426 C133.080984,13.4443426 133.53183,13.4212223 133.940294,13.3749811 C134.348759,13.3287398 134.684003,13.2670857 134.946037,13.190017 L134.946037,10.415555 L132.4259,10.415555 Z M144.389194,15.5020686 C143.495196,15.0242422 142.755347,14.4077013 142.169625,13.6524273 C141.583902,12.8971533 141.144617,12.0378494 140.851755,11.0744897 C140.558894,10.1111301 140.412465,9.1362247 140.412465,8.14974441 C140.412465,7.16326412 140.558894,6.18835876 140.851755,5.2249991 C141.144617,4.26163944 141.583902,3.40233551 142.169625,2.64706154 C142.755347,1.89178757 143.495196,1.28295339 144.389194,0.820540756 C145.283192,0.358128118 146.323605,0.126925268 147.510464,0.126925268 C148.712737,0.126925268 149.760856,0.358128118 150.654854,0.820540756 C151.548852,1.28295339 152.296408,1.89178757 152.897544,2.64706154 C153.498681,3.40233551 153.945673,4.26163944 154.238534,5.2249991 C154.531396,6.18835876 154.677824,7.16326412 154.677824,8.14974441 C154.677824,9.1362247 154.531396,10.1111301 154.238534,11.0744897 C153.945673,12.0378494 153.498681,12.8971533 152.897544,13.6524273 C152.296408,14.4077013 151.548852,15.0203888 150.654854,15.4905083 C149.760856,15.9606278 148.712737,16.1956841 147.510464,16.1956841 C146.323605,16.1956841 145.283192,15.9644812 144.389194,15.5020686 L144.389194,15.5020686 Z M144.574158,11.8259065 C144.913261,12.3191466 145.325573,12.7121915 145.811106,13.0050528 C146.296639,13.2979142 146.863086,13.4443426 147.510464,13.4443426 C148.157842,13.4443426 148.731995,13.2979142 149.232942,13.0050528 C149.733889,12.7121915 150.153908,12.3191466 150.493011,11.8259065 C150.832113,11.3326664 151.086436,10.7662194 151.255988,10.1265486 C151.425539,9.48687774 151.510313,8.82794961 151.510313,8.14974441 C151.510313,7.47153921 151.425539,6.81261109 151.255988,6.17294027 C151.086436,5.53326946 150.832113,4.96682247 150.493011,4.47358233 C150.153908,3.98034218 149.733889,3.58729733 149.232942,3.294436 C148.731995,3.00157466 148.157842,2.85514619 147.510464,2.85514619 C146.863086,2.85514619 146.296639,3.00157466 145.811106,3.294436 C145.325573,3.58729733 144.913261,3.98034218 144.574158,4.47358233 C144.235056,4.96682247 143.980733,5.53326946 143.811181,6.17294027 C143.64163,6.81261109 143.556856,7.47153921 143.556856,8.14974441 C143.556856,8.82794961 143.64163,9.48687774 143.811181,10.1265486 C143.980733,10.7662194 144.235056,11.3326664 144.574158,11.8259065 L144.574158,11.8259065 Z M155.728234,15.8719968 L162.063256,0.450612496 L164.259705,0.450612496 L170.687208,15.8719968 L167.334733,15.8719968 L166.086226,12.7738477 L160.144253,12.7738477 L158.872624,15.8719968 L155.728234,15.8719968 Z M161.092194,10.1612293 L165.068923,10.1612293 L163.080558,5.09783626 L161.092194,10.1612293 Z M174.165273,15.8719968 L174.165273,3.24819496 L169.56429,3.24819496 L169.56429,0.450612496 L181.887525,0.450612496 L181.887525,3.24819496 L177.309663,3.24819496 L177.309663,15.8719968 L174.165273,15.8719968 Z" id="MOUNTAIN-GOAT" fill="#18395C"></path>
                        <path d="M1.10530294,29.217565 C1.4207665,29.6744433 1.83412635,30.0170969 2.34539488,30.245536 C2.85666341,30.4739751 3.37880217,30.588193 3.91182681,30.588193 C4.19465621,30.588193 4.463884,30.5528398 4.71951827,30.4821325 C4.97515253,30.4114251 5.19814929,30.3026462 5.38851524,30.1557925 C5.57888118,30.0089388 5.73117165,29.8158562 5.84539121,29.576539 C5.95961078,29.3372218 6.01671971,29.0543967 6.01671971,28.7280551 C6.01671971,28.4234696 5.94601342,28.1542418 5.80459872,27.9203636 C5.66318402,27.6864854 5.47282093,27.477086 5.23350374,27.2921591 C4.99418656,27.1072322 4.72223929,26.9413444 4.41765378,26.7944907 C4.11306827,26.6476369 3.79760944,26.5035049 3.47126783,26.3620902 C3.101414,26.1989194 2.73700466,26.0330315 2.37802888,25.8644217 C2.0190531,25.6958119 1.69543585,25.4918514 1.40716743,25.2525342 C1.118899,25.013217 0.885024349,24.7358308 0.705536461,24.4203673 C0.526048572,24.1049037 0.436305973,23.7187386 0.436305973,23.2618603 C0.436305973,22.794104 0.531487517,22.3834636 0.72185346,22.0299269 C0.912219402,21.6763901 1.16784983,21.3826871 1.48875242,21.1488089 C1.80965501,20.9149308 2.17406435,20.7408845 2.58199137,20.6266649 C2.98991839,20.5124454 3.4168756,20.4553365 3.86287581,20.4553365 C4.5481932,20.4553365 5.20630559,20.5913101 5.83723271,20.8632614 C6.46815984,21.1352128 6.9794207,21.5648895 7.37103064,22.1523044 L6.37569369,22.9355203 C6.09286429,22.5439104 5.73117442,22.2257321 5.29061324,21.9809759 C4.85005206,21.7362197 4.3687054,21.6138434 3.84655881,21.6138434 C3.20475363,21.6138434 2.70709013,21.7579755 2.35355338,22.0462439 C2.00001663,22.3345123 1.82325091,22.717958 1.82325091,23.1965923 C1.82325091,23.4685437 1.88579878,23.6996988 2.0108964,23.8900648 C2.13599402,24.0804307 2.31004027,24.254477 2.53304037,24.4122088 C2.75604048,24.5699405 3.02526827,24.7195115 3.34073183,24.8609262 C3.6561954,25.0023409 4.00972684,25.1600704 4.40133678,25.3341192 C4.77119062,25.49729 5.13559995,25.6713363 5.49457573,25.8562632 C5.85355151,26.0411901 6.17444928,26.2587479 6.45727869,26.5089432 C6.74010809,26.7591384 6.96854379,27.0528415 7.14259265,27.3900611 C7.31664151,27.7272808 7.40366464,28.1297627 7.40366464,28.5975191 C7.40366464,29.1522998 7.3084831,29.630927 7.11811715,30.033415 C6.92775121,30.435903 6.66940131,30.7676787 6.34305969,31.0287519 C6.01671807,31.2898252 5.63871137,31.4801883 5.20902824,31.5998469 C4.77934512,31.7195055 4.31975424,31.7793339 3.83024181,31.7793339 C3.46038798,31.7793339 3.09325917,31.7385418 2.72884436,31.6569564 C2.36442956,31.575371 2.01633706,31.4584337 1.68455641,31.3061409 C1.35277577,31.1538482 1.04819483,30.9662046 0.770804457,30.7432045 C0.493414084,30.5202044 0.262258906,30.2672934 0.0773319906,29.984464 L1.10530294,29.217565 Z M18.9784842,31.2735069 C18.4019473,30.9471653 17.9260396,30.5202081 17.5507468,29.9926225 C17.1754539,29.4650369 16.8980677,28.861314 16.7185798,28.1814356 C16.5390919,27.5015572 16.4493493,26.8080917 16.4493493,26.1010182 C16.4493493,25.3939447 16.5390919,24.7031986 16.7185798,24.0287593 C16.8980677,23.3543199 17.1754539,22.750597 17.5507468,22.2175724 C17.9260396,21.6845477 18.4019473,21.2575905 18.9784842,20.9366879 C19.555021,20.6157853 20.2457671,20.4553365 21.0507431,20.4553365 C21.844841,20.4553365 22.5301481,20.6157853 23.106685,20.9366879 C23.6832218,21.2575905 24.1591296,21.6845477 24.5344224,22.2175724 C24.9097153,22.750597 25.1871015,23.3543199 25.3665894,24.0287593 C25.5460773,24.7031986 25.6358199,25.3939447 25.6358199,26.1010182 C25.6358199,26.8080917 25.5460773,27.5015572 25.3665894,28.1814356 C25.1871015,28.861314 24.9097153,29.4650369 24.5344224,29.9926225 C24.1591296,30.5202081 23.6832218,30.9471653 23.106685,31.2735069 C22.5301481,31.5998486 21.844841,31.7630169 21.0507431,31.7630169 C20.2457671,31.7630169 19.555021,31.5998486 18.9784842,31.2735069 L18.9784842,31.2735069 Z M18.6031932,29.201248 C18.8751446,29.6254921 19.2123592,29.9654262 19.6148472,30.2210605 C20.0173351,30.4766948 20.4959623,30.60451 21.0507431,30.60451 C21.6055238,30.60451 22.084151,30.4766948 22.486639,30.2210605 C22.889127,29.9654262 23.2209027,29.6254921 23.481976,29.201248 C23.7430493,28.7770039 23.9388513,28.2956573 24.0693879,27.7571936 C24.1999246,27.2187299 24.2651919,26.666677 24.2651919,26.1010182 C24.2651919,25.5462374 24.2026441,24.9996234 24.0775464,24.4611598 C23.9524488,23.9226961 23.7593663,23.4413494 23.498293,23.0171053 C23.2372197,22.5928612 22.9027245,22.2529271 22.4947975,21.9972929 C22.0868705,21.7416586 21.6055238,21.6138434 21.0507431,21.6138434 C20.4959623,21.6138434 20.0146157,21.7416586 19.6066887,21.9972929 C19.1987616,22.2529271 18.861547,22.5928612 18.5950347,23.0171053 C18.3285224,23.4413494 18.1327204,23.9226961 18.0076227,24.4611598 C17.8825251,24.9996234 17.8199772,25.5462374 17.8199772,26.1010182 C17.8199772,26.666677 17.8852446,27.2187299 18.0157812,27.7571936 C18.1463179,28.2956573 18.3421199,28.7770039 18.6031932,29.201248 L18.6031932,29.201248 Z M35.3994525,31.5508959 L35.3994525,20.6674574 L41.5672782,20.6674574 L41.5672782,21.7933304 L36.7048124,21.7933304 L36.7048124,25.4646552 L40.2945523,25.4646552 L40.2945523,26.5905282 L36.6884954,26.5905282 L36.6884954,31.5508959 L35.3994525,31.5508959 Z M52.7668068,31.5508959 L52.7668068,21.7933304 L49.3891879,21.7933304 L49.3891879,20.6674574 L57.4334685,20.6674574 L57.4334685,21.7933304 L54.0558497,21.7933304 L54.0558497,31.5508959 L52.7668068,31.5508959 Z M67.9640001,31.5508959 L65.2227443,20.6674574 L66.5444212,20.6674574 L68.5514121,28.3527641 L70.998962,20.6674574 L71.684276,20.6674574 L74.1644598,28.3527641 L76.1388168,20.6674574 L77.4768107,20.6674574 L74.7355548,31.5508959 L73.9523389,31.5508959 L71.341619,23.4413473 L68.7472161,31.5508959 L67.9640001,31.5508959 Z M84.4665535,31.5508959 L88.6600223,20.6674574 L89.4595552,20.6674574 L93.734609,31.5508959 L92.3150301,31.5508959 L91.0259871,28.1895941 L87.0772733,28.1895941 L85.8371814,31.5508959 L84.4665535,31.5508959 Z M87.5015153,27.0310871 L90.6017452,27.0310871 L89.0189962,22.8702523 L87.5015153,27.0310871 Z M102.698709,31.5508959 L102.698709,20.6674574 L106.190547,20.6674574 C107.408889,20.6674574 108.306315,20.9394047 108.882851,21.4833074 C109.459388,22.0272101 109.747652,22.7451509 109.747652,23.6371513 C109.747652,24.1157857 109.679666,24.531865 109.54369,24.8854017 C109.407714,25.2389385 109.217351,25.5380805 108.972595,25.7828367 C108.727839,26.0275929 108.439575,26.2261144 108.107794,26.3784072 C107.776013,26.5306999 107.419762,26.6394788 107.03903,26.7047472 L110.008724,31.5508959 L108.523877,31.5508959 L105.586818,26.7863322 L104.004069,26.7863322 L104.004069,31.5508959 L102.698709,31.5508959 Z M104.004069,25.6604592 L106.108962,25.6604592 C107.621011,25.6604592 108.377024,24.98603 108.377024,23.6371513 C108.377024,23.0171022 108.1921,22.5547919 107.822246,22.2502064 C107.452393,21.9456209 106.919376,21.7933304 106.223181,21.7933304 L104.004069,21.7933304 L104.004069,25.6604592 Z M119.331798,31.5508959 L119.331798,20.6674574 L125.679111,20.6674574 L125.679111,21.7933304 L120.637158,21.7933304 L120.637158,25.2851682 L124.243215,25.2851682 L124.243215,26.4110412 L120.620841,26.4110412 L120.620841,30.425023 L126.070719,30.425023 L126.070719,31.5508959 L119.331798,31.5508959 Z" id="SOFTWARE" fill="#4797EB"></path>
                    </g>
                </g>
            </g>
        </g>
    </g>
</svg>