<?xml version="1.0" encoding="UTF-8" standalone="no"?>
<svg width="75px" height="71px" viewBox="0 0 75 71" version="1.1" xmlns="http://www.w3.org/2000/svg" xmlns:xlink="http://www.w3.org/1999/xlink">
    <!-- Generator: Sketch 47.1 (45422) - http://www.bohemiancoding.com/sketch -->
    <title>logo-footer</title>
    <desc>Created with Sketch.</desc>
    <defs></defs>
    <g id="mockups-2" stroke="none" stroke-width="1" fill="none" fill-rule="evenodd">
        <g id="home-mike-grey-c-copy" transform="translate(-56.000000, -2450.000000)">
            <g id="footer" transform="translate(0.000000, 2441.000000)">
                <g id="logo-footer" transform="translate(56.000000, 9.000000)">
                    <polygon id="Shape-Copy-2" fill="#D5EFFF" points="17.3793103 47 -3.55271368e-14 71 36 71"></polygon>
                    <polygon id="Shape" fill="#54BEFF" points="36.6787709 40 14 71 60 71"></polygon>
                    <polygon id="Shape" fill="#D5EFFF" points="56.3793103 47 39 71 75 71"></polygon>
                    <path d="M44.7503303,8.26233667 C44.5719947,7.72339522 44.3936592,6.58562993 45.0475561,5.38798226 C45.998679,3.65139313 47.7820343,3.4118636 48.9114927,3.65139313 C50.3976222,3.95080505 51.2298547,5.08857034 51.5270806,5.92692371 C51.9431968,7.064689 51.5865258,7.84315999 51.2892999,7.90304237 C51.1704095,7.90304237 49.6842801,7.36410092 48.1387054,7.60363045 C46.5931308,7.84315999 49.2681638,9.45998434 49.2681638,9.45998434 C49.2681638,9.45998434 49.6842801,9.81927865 48.7926024,10.1186906 C48.317041,10.2983377 49.2087186,10.7773968 48.9709379,11.1366911 C48.7331572,11.4959854 47.6036988,10.1785729 47.7225892,11.0169263 C47.7225892,11.1965735 47.8414795,12.0349268 47.1875826,12.214574 C35.4174373,3.95080505 25.668428,13.1726921 24.65786,13.8912807 C24.003963,14.3703398 22.4583884,14.4901046 21.8639366,12.7535154 C21.8639366,12.7535154 20.318362,11.9750445 18,12.2744564 L20.318362,17.6638709 C20.318362,17.6638709 22.5772787,18.0231652 22.6367239,19.9394015 C22.6367239,21.1370492 22.4583884,23.771874 22.4583884,23.771874 L24.2417437,22.3945792 C24.4200793,23.5323445 23.2906209,25.4485808 23.2906209,25.4485808 L24.8956407,24.9096393 C25.3712021,24.7898746 25.9062087,24.6701098 26.678996,25.7479927 C27.1545575,26.4665813 37.319683,40 37.319683,40 L46.1175694,24.7898746 C46.7714663,23.7119917 48.6142668,25.7479927 48.6142668,25.6282279 C48.7926024,24.7299922 48.673712,24.2509331 49.2087186,22.7538735 C49.4464993,22.0352849 50.6354029,20.3585782 51.348745,21.3765787 C51.5865258,21.735873 52.002642,19.9992839 52.1215324,19.8795191 C52.2404227,19.7597543 52.5970938,20.3585782 52.8348745,20.3585782 C53.1915456,19.5801072 53.1321004,19.2806953 53.1915456,19.1609305 C53.3104359,18.9812833 53.2509908,18.8016362 53.4887715,19.0411657 C53.6076618,19.1609305 53.5482166,20.0591662 54.0237781,20.178931 C54.1426684,20.2388134 54.677675,18.8016362 55.1532365,19.5801072 C55.2126816,19.6399896 55.9260238,22.5742264 55.985469,22.7538735 C56.1638045,23.1730502 56.6988111,21.0172844 56.6988111,21.0172844 C56.6988111,21.0172844 56.9365918,22.7538735 57.0554822,22.4544616 C57.2338177,22.0352849 58.0660502,20.178931 58.1849406,19.9394015 C58.4227213,19.6399896 58.7199472,19.5202248 59.4927345,19.6399896 C60.324967,19.8196367 61.6327609,19.9992839 61.3949802,19.3405776 C61.1571995,18.621989 62.346103,18.5022243 62.346103,18.5022243 L62.4649934,17.2446942 C62.4649934,17.2446942 62.8216645,16.8255175 62.8216645,16.7656351 L63,16.0470465 C62.7027741,15.6877522 62.0488771,15.3284579 61.5733157,14.9092813 C59.6116248,13.2924569 57.6499339,9.10069004 57.0554822,7.12457138 C56.996037,7.00480662 56.1043593,7.36410092 56.0449141,7.24433615 C56.0449141,7.24433615 56.7582563,6.64551231 56.8177015,6.52574755 C57.1149273,5.80715894 56.4015852,4.19033458 55.8665786,3.29209883 C55.0343461,1.97468639 52.002642,-1.19907994 47.1875826,0.477626799 C44.8692206,1.25609779 43.7992074,2.87292214 43.323646,4.36998174 C42.7886394,6.22633563 43.2642008,7.96292475 43.680317,8.68151336 C43.680317,8.68151336 44.2153236,9.69951388 44.9286658,9.40010196 C45.1070013,9.22045481 44.8097754,8.56174859 44.7503303,8.26233667 L44.7503303,8.26233667 Z M37.2602378,38.6825876 L33.1585205,25.5084632 L39.4002642,26.2270518 L37.2602378,38.6825876 L37.2602378,38.6825876 Z" id="Shape" fill="#FFFFFF"></path>
                </g>
            </g>
        </g>
    </g>
</svg>