<?xml version="1.0" encoding="UTF-8" standalone="no"?>
<svg width="186px" height="134px" viewBox="0 0 186 134" version="1.1" xmlns="http://www.w3.org/2000/svg" xmlns:xlink="http://www.w3.org/1999/xlink">
    <!-- Generator: Sketch 47.1 (45422) - http://www.bohemiancoding.com/sketch -->
    <title>scrum</title>
    <desc>Created with Sketch.</desc>
    <defs>
        <filter x="-3.7%" y="-2.8%" width="107.4%" height="109.6%" filterUnits="objectBoundingBox" id="filter-1">
            <feOffset dx="3" dy="3" in="SourceAlpha" result="shadowOffsetOuter1"></feOffset>
            <feColorMatrix values="0 0 0 0 0   0 0 0 0 0   0 0 0 0 0  0 0 0 0.2 0" type="matrix" in="shadowOffsetOuter1" result="shadowMatrixOuter1"></feColorMatrix>
            <feMerge>
                <feMergeNode in="shadowMatrixOuter1"></feMergeNode>
                <feMergeNode in="SourceGraphic"></feMergeNode>
            </feMerge>
        </filter>
        <path d="M82.222168,12.1865234 L85.4506836,21.9492188 C72.4165039,21.300293 61.576387,25.9808283 53.538824,34.0549309 C46.0882002,41.5394259 41.7912795,51.3207501 41.19558,61.8016832 L44.718099,61.8016832 L34.9100743,71 L23.5957031,62.417691 L27.6477967,62.417691 C28.6311388,32.1981073 53.538824,7.77050781 88.2026367,8.10888672 L82.222168,12.1865234 Z M166.983989,114.027333 L157.692446,124.000667 L157.629474,120.862889 L110.115723,120.862889 C117.08332,117.675296 122.680671,114.027333 128.977342,107.189556 L157.353703,107.189556 L157.292903,104.198444 C157.292903,104.198444 160.523265,107.474741 166.983989,114.027333 Z M118.760714,21.2977261 C122.267667,9.35557391 133.268238,0.630052174 146.316905,0.630052174 C162.189095,0.630052174 175.055952,13.527313 175.055952,29.4370087 C175.055952,43.707566 164.695606,55.5221495 151.107619,57.8069027 L151.107619,62.3137207 L142.318604,52.1708984 L149.91026,41.6333008 L149.955473,45.362073 C157.213488,43.7069139 162.631571,37.2124957 162.631571,29.4370087 C162.631571,20.4040957 155.328524,13.0837913 146.316905,13.0837913 C137.307476,13.0837913 130.002238,20.4040957 130.002238,29.4370087 C130.002238,31.6436391 130.481952,33.727313 131.272714,35.6507043 C136.461952,44.1654435 139.462905,54.1688348 139.462905,64.8814217 C139.462905,75.0465295 136.767022,84.5821435 132.053752,92.8081651 L129.018555,82.7416992 L120.84082,84.7756348 C124.291753,78.5326771 125.987095,72.215206 125.987095,64.8814217 C125.987095,53.4837913 121.560143,42.7690087 113.521095,34.7109652 C108.458905,29.6390087 102.343095,26.013987 95.6709048,24.0137478 L94.0302188,27.9558585 L89.2929687,14.2768555 L102.433623,6.49090987 L100.435553,11.3627396 C107.190209,13.516457 113.388386,16.9153579 118.760714,21.2977261 Z M62.2079077,101.435233 L43.1206055,101.435233 C36.222168,94.9970703 30.1079388,83.6575845 28.539871,72.8123094 L35.3095703,78.0471191 L42.025154,72.3445243 C43.548623,80.8158934 47.5687232,88.6127194 53.7170833,94.8304544 C56.3613896,97.5045977 59.1773335,99.6849154 62.2079077,101.435233 Z M129,103.800885 L125.753587,101.977876 C115.488614,113.643805 100.524886,121 83.8569003,121 L-1.13686838e-13,121 L6.73816842,114.19469 L-1.13686838e-13,107.389381 L81.583097,107.329646 C82.3366503,107.367257 83.0945847,107.389381 83.8569003,107.389381 C95.0572433,107.389381 105.587274,103.030973 113.585016,95.1371681 L110.161133,92.9516602 C120.225288,90.6415375 125.257366,89.4864762 125.257366,89.4864762 L129,103.800885 Z" id="path-2"></path>
    </defs>
    <g id="mockups-2" stroke="none" stroke-width="1" fill="none" fill-rule="evenodd">
        <g id="home-mike-grey-c-copy-5" transform="translate(-996.000000, -1396.000000)">
            <g id="scrum" filter="url(#filter-1)" transform="translate(1001.000000, 1398.000000)">
                <g id="Combined-Shape">
                    <use fill="#D5EFFF" fill-rule="evenodd" xlink:href="#path-2"></use>
                    <path stroke="#000000" stroke-width="2" d="M83.4082477,12.5881487 L86.8582293,23.0205341 L85.4009587,22.9479817 C73.1310696,22.3371072 62.4332088,26.5375432 54.2475326,34.7604322 C47.2550335,41.7847198 43.0725435,50.9171932 42.2670344,60.8016832 L47.2462192,60.8016832 L34.9783521,72.3069284 L20.622673,61.417691 L26.6877825,61.417691 C28.2111675,30.3593984 54.1613911,6.7765375 88.212398,7.10893436 L91.3987225,7.14003841 L83.4082477,12.5881487 Z M156.649342,121.862889 L105.526139,121.862889 L109.699703,119.953533 C117.179957,116.531407 122.456133,112.794936 128.241729,106.512154 L128.538799,106.189556 L128.977342,106.189556 L156.333169,106.189556 L156.242081,101.708376 L168.368988,114.007723 L156.742156,126.487703 L156.649342,121.862889 Z M118.250318,19.614911 C122.365931,7.78417905 133.541812,-0.369947826 146.316905,-0.369947826 C162.741909,-0.369947826 176.055952,12.9755559 176.055952,29.4370087 C176.055952,43.7509195 165.911269,55.9142112 152.107627,58.6405847 L152.107619,64.9947761 L141.044933,52.2280612 L150.87338,38.5856872 L150.939753,44.0595792 C157.219318,42.0758226 161.631571,36.2081084 161.631571,29.4370087 C161.631571,20.9558528 154.77571,14.0837913 146.316905,14.0837913 C137.859513,14.0837913 131.002238,20.9566317 131.002238,29.4370087 C131.002238,31.3885478 131.40338,33.3147236 132.168337,35.1988345 C137.56432,44.0806314 140.462905,54.2697786 140.462905,64.8814217 C140.462905,74.9926962 137.837767,84.7248599 132.921418,93.3053124 L131.766787,95.3204786 L128.335977,83.9419332 L118.855673,86.299839 L119.965631,84.2918544 C123.379113,78.1166485 124.987095,71.9561261 124.987095,64.8814217 C124.987095,53.7482775 120.664949,43.287585 112.813307,35.4173902 C108.120488,30.7155177 102.467781,27.254203 96.2438209,25.2397021 L93.944536,30.7642424 L88.0808737,13.8326781 L104.491159,4.10944868 L101.768137,10.7489083 C107.725176,12.7746733 113.289524,15.774946 118.250318,19.614911 Z M35.2801107,76.7602394 L42.7019191,70.4579478 L43.0093653,72.1675263 C44.5037644,80.4772503 48.4485304,88.0802393 54.4281458,94.1273256 C56.9942207,96.7223548 59.7365984,98.8531186 62.7080395,100.569284 L65.9388225,102.435233 L42.7264592,102.435233 L42.4383087,102.166309 C35.1383147,95.3533816 29.1037457,83.7005019 27.5501624,72.9554068 L27.1965097,70.5094281 L35.2801107,76.7602394 Z M125.964643,103.243274 C115.233035,115.102432 100.095253,122 83.8569003,122 L-2.39738851,122 L5.33091389,114.19469 L-2.395652,106.391134 L-0.000732192077,106.389381 L81.632946,106.330889 C82.4067323,106.36951 83.1426748,106.389381 83.8569003,106.389381 C94.3595766,106.389381 104.272482,102.464944 111.974717,95.2956509 L107.611894,92.5108055 L125.979391,88.294737 L130.562952,105.825434 L125.964643,103.243274 Z"></path>
                </g>
                <path d="M165.589976,8.06771844 C171.403466,13.3390107 175.055952,20.9604431 175.055952,29.4370087 C175.055952,43.707566 164.695606,55.5221495 151.107619,57.8069027 L151.107619,62.3137207 L149.107619,60.0056528 L149.107619,55.8069027 C162.695606,53.5221495 173.055952,41.707566 173.055952,27.4370087 C173.055952,19.9792794 170.228717,13.1834727 165.589976,8.06771844 Z M156.796879,16.9025617 C153.962303,14.5189834 150.307092,13.0837913 146.316905,13.0837913 C137.307476,13.0837913 130.002238,20.4040957 130.002238,29.4370087 C130.002238,31.6436391 130.481952,33.727313 131.272714,35.6507043 C136.461952,44.1654435 139.462905,54.1688348 139.462905,64.8814217 C139.462905,75.0465295 136.767022,84.5821435 132.053752,92.8081651 L130.956665,89.1695904 C135.109716,81.3260966 137.462905,72.3784962 137.462905,62.8814217 C137.462905,52.1688348 134.461952,42.1654435 129.272714,33.6507043 C128.481952,31.727313 128.002238,29.6436391 128.002238,27.4370087 C128.002238,18.4040957 135.307476,11.0837913 144.316905,11.0837913 C149.324415,11.0837913 153.804366,13.3440972 156.796879,16.9025617 Z M112.473383,33.6958836 C107.624136,29.1532639 101.889144,25.8778982 95.6709048,24.0137478 L94.0302188,27.9558585 L92.7438095,24.2412991 L93.6709048,22.0137478 C100.343095,24.013987 106.458905,27.6390087 111.521095,32.7109652 C111.844384,33.0350176 112.161831,33.3633665 112.473383,33.6958836 Z M1.98026796,119 L81.8569003,119 C98.5248858,119 113.488614,111.643805 123.753587,99.9778761 L127,101.800885 L123.863913,89.8063289 C124.792882,89.5930938 125.257366,89.4864762 125.257366,89.4864762 L129,103.800885 L125.753587,101.977876 C115.488614,113.643805 100.524886,121 83.8569003,121 L-1.13686838e-13,121 L1.98026796,119 Z M41.1450692,99.4352335 L55.9024066,99.4352335 C51.9771179,96.0645639 43.0620657,87.7524742 40.4939641,73.6447545 L42.025154,72.3445243 C43.548623,80.8158934 47.5687232,88.6127194 53.7170833,94.8304544 C56.3613896,97.5045977 59.1773335,99.6849154 62.2079077,101.435233 L43.1206055,101.435233 C42.4536292,100.812759 41.7939838,100.144467 41.1450692,99.4352335 Z M114.16776,118.862889 L159.592773,118.862889 L165.510907,112.533305 C165.981706,113.010798 166.472733,113.508808 166.983989,114.027333 L157.692446,124.000667 L157.629474,120.862889 L110.115723,120.862889 C111.516156,120.222208 112.861233,119.562928 114.16776,118.862889 Z M32.8456874,69.4340971 L34.9100743,71 L44.718099,61.8016832 L41.19558,61.8016832 C41.7912795,51.3207501 46.0882002,41.5394259 53.538824,34.0549309 C61.576387,25.9808283 72.4165039,21.300293 85.4506836,21.9492188 L82.222168,12.1865234 L88.2026367,8.10888672 C86.4682473,8.09195607 84.7582819,8.13702605 83.0745153,8.24171998 L80.222168,10.1865234 L83.4506836,19.9492188 C70.4165039,19.300293 59.576387,23.9808283 51.538824,32.0549309 C44.0882002,39.5394259 39.7912795,49.3207501 39.19558,59.8016832 C39.19558,61.287193 39.19558,62.5027778 39.19558,63.4484375 L32.8456874,69.4340971 Z M24.1748744,62.8570108 L23.5957031,62.417691 L23.7103675,62.417691 L24.1748744,62.8570108 Z" id="Combined-Shape" fill="#65BEF6"></path>
            </g>
        </g>
    </g>
</svg>